<?xml version="1.0" encoding="UTF-8"?>
<svg version="1.1" xmlns="http://www.w3.org/2000/svg" width="371" height="186">
<path d="M0 0 C2.04698414 2.04698414 1.70045693 6.30411241 2 9 C2.33 9 2.66 9 3 9 C3.33 6.03 3.66 3.06 4 0 C17.15709432 -0.56387547 26.0149687 3.42904793 36.6875 10.875 C44.31866514 17.88742202 49.24090819 24.8864285 50.23828125 35.546875 C50.25 37.75 50.25 37.75 50 41 C56.28031451 40.66090073 56.28031451 40.66090073 61 37 C63.4375 36.5625 63.4375 36.5625 66 37 C68.3125 38.625 68.3125 38.625 70 41 C70.65454929 44.84547708 70.29284835 46.50107319 68.3125 49.875 C66 52 66 52 63.375 52.4375 C61 52 61 52 59 50 C56.79749008 49.53993654 56.79749008 49.53993654 54.375 49.375 C53.55773437 49.30023438 52.74046875 49.22546875 51.8984375 49.1484375 C51.27195312 49.09945312 50.64546875 49.05046875 50 49 C50.0825 50.27875 50.165 51.5575 50.25 52.875 C50.25752184 57.66641372 48.99907656 61.2350339 47.0703125 65.578125 C46.08840319 67.7999636 45.31677663 70.00632087 44.5625 72.3125 C43.14226139 76.1125979 41.1839895 78.42248469 38 81 C36.34311392 81.6906162 34.6740866 82.35219118 33 83 C31.78432675 83.55635972 30.57234399 84.12082332 29.36328125 84.69140625 C21.95416177 88.13642825 15.35580184 91.14060243 7 91 C5.79727181 88.59454362 5.89928528 87.05003047 5.9375 84.375 C5.94652344 83.55773437 5.95554687 82.74046875 5.96484375 81.8984375 C5.97644531 81.27195312 5.98804688 80.64546875 6 80 C6.81082031 79.86464844 7.62164062 79.72929688 8.45703125 79.58984375 C16.79001093 77.96981161 23.33774016 75.33951608 30 70 C30.99 68.515 30.99 68.515 32 67 C32.66 67 33.32 67 34 67 C36.05847771 63.26780677 37.31255403 59.2865344 38.625 55.25 C38.85445313 54.55261719 39.08390625 53.85523438 39.3203125 53.13671875 C39.88294552 51.42537664 40.44184608 49.7128082 41 48 C39.906875 48.185625 38.81375 48.37125 37.6875 48.5625 C34 49 34 49 31 48 C31.185625 48.969375 31.37125 49.93875 31.5625 50.9375 C32.23878744 55.74992219 32.57954801 61.432495 29.95703125 65.6953125 C26.88694164 67.74203891 23.52384949 67.80709002 19.9375 68.125 C19.165271 68.20282715 18.39304199 68.2806543 17.59741211 68.36083984 C16.07032638 68.51388531 14.54273555 68.66198676 13.01464844 68.8046875 C11.43663568 68.95766983 9.86187957 69.14431498 8.2890625 69.34375 C2.75191559 70.04317908 -2.80017111 70.1650229 -8.375 70.25 C-9.16124756 70.27143066 -9.94749512 70.29286133 -10.75756836 70.31494141 C-14.00687817 70.33384699 -16.52465568 70.23616313 -19.4609375 68.77734375 C-21.32259358 66.62746173 -21.76511612 65.10058231 -22.25 62.3125 C-22.39953125 61.50425781 -22.5490625 60.69601563 -22.703125 59.86328125 C-22.80109375 59.24839844 -22.8990625 58.63351563 -23 58 C-25.64 58 -28.28 58 -31 58 C-28.33605888 62.49813009 -25.78685784 66.35339616 -22 70 C-22 70.66 -22 71.32 -22 72 C-21.41089844 72.28875 -20.82179687 72.5775 -20.21484375 72.875 C-18.295368 73.84997181 -16.42335128 74.91732289 -14.5625 76 C-9.82957368 78.43356514 -5.00393523 78.82562086 0.2421875 79.3125 C3 80 3 80 4.40625 81.828125 C5.2836541 85.03757684 4.62001406 87.77592691 4 91 C-9.06167284 91.54423637 -20.80003803 87.36623209 -30.9296875 79.015625 C-36.84538826 73.25618803 -42.46255578 65.41268672 -43.171875 56.94921875 C-43.18510691 55.2985377 -43.10296996 53.64751941 -43 52 C-44.98 51.67 -46.96 51.34 -49 51 C-49 51.66 -49 52.32 -49 53 C-52.41540279 55.10178633 -55.02251415 55.56821226 -59 55 C-61.875 52.5 -61.875 52.5 -64 50 C-63.97679688 50.62648437 -63.95359375 51.25296875 -63.9296875 51.8984375 C-63.90261719 53.12433594 -63.90261719 53.12433594 -63.875 54.375 C-63.85179688 55.18710938 -63.82859375 55.99921875 -63.8046875 56.8359375 C-64 59 -64 59 -66 61 C-68.4375 61.8125 -68.4375 61.8125 -71 62 C-72.65234375 61 -72.65234375 61 -74 59 C-74.19320277 56.31565241 -74.23641373 53.85900756 -74.125 51.1875 C-73.97243403 46.3188507 -74.1860165 41.81186706 -75 37 C-73.9375 35.0625 -73.9375 35.0625 -72 34 C-69.00224356 34.24471481 -66.69322172 34.65338914 -64 36 C-63.40644386 38.64860427 -63.25790731 41.29197322 -63 44 C-62.46375 43.34 -61.9275 42.68 -61.375 42 C-59 40 -59 40 -56 39.5625 C-52.68127603 40.04648058 -51.58842626 40.99605709 -49 43 C-46.33238236 43.25124826 -46.33238236 43.25124826 -44 43 C-43.86722656 42.32324219 -43.73445313 41.64648438 -43.59765625 40.94921875 C-42.65862313 36.31542787 -41.63186585 31.70063102 -40.62109375 27.08203125 C-39.93415016 24.19723406 -39.93415016 24.19723406 -40 22 C-39.38125 21.938125 -38.7625 21.87625 -38.125 21.8125 C-37.42375 21.544375 -36.7225 21.27625 -36 21 C-35.72800781 20.25105469 -35.45601562 19.50210938 -35.17578125 18.73046875 C-31.7969927 10.88404616 -22.06276026 6.05067732 -14.5078125 2.9296875 C-9.68415388 1.14147761 -5.23790718 -0.46216828 0 0 Z M4 11 C3.63883954 12.4774746 3.28624952 13.95704675 2.9375 15.4375 C2.64166016 16.67306641 2.64166016 16.67306641 2.33984375 17.93359375 C2.22769531 18.61550781 2.11554688 19.29742187 2 20 C3.66342837 21.66342837 5.7825709 21.36048097 8.0625 21.5625 C8.98160156 21.64628906 9.90070313 21.73007812 10.84765625 21.81640625 C11.55792969 21.87699219 12.26820313 21.93757813 13 22 C13.66 23.65 14.32 25.3 15 27 C15.68707031 27.03738281 16.37414062 27.07476562 17.08203125 27.11328125 C17.98308594 27.17902344 18.88414062 27.24476562 19.8125 27.3125 C20.70582031 27.37050781 21.59914063 27.42851563 22.51953125 27.48828125 C25.40239371 28.08301351 26.3463531 28.58067737 28 31 C28.4765625 33.4453125 28.4765625 33.4453125 28.625 36.125 C28.56533788 39.36911814 28.56533788 39.36911814 30 42 C31.41570123 42.08651611 32.835595 42.10704904 34.25390625 42.09765625 C35.10791016 42.09443359 35.96191406 42.09121094 36.84179688 42.08789062 C37.73962891 42.07951172 38.63746094 42.07113281 39.5625 42.0625 C40.91504883 42.05573242 40.91504883 42.05573242 42.29492188 42.04882812 C44.53001314 42.03700225 46.76497437 42.0205222 49 42 C48.505 41.01 48.505 41.01 48 40 C45.69 40 43.38 40 41 40 C40.731875 39.23816406 40.46375 38.47632812 40.1875 37.69140625 C35.86983789 26.31493472 30.36166451 19.29759042 19.1875 14.15234375 C14.2224926 12.35739622 9.23746208 11.53860426 4 11 Z M-14 15 C-16.68743506 17.27073609 -16.68743506 17.27073609 -19 20 C-20.423125 21.0209375 -20.423125 21.0209375 -21.875 22.0625 C-26.53048454 25.85495738 -29.65462698 31.5524403 -32 37 C-31.80905066 39.29671852 -31.80905066 39.29671852 -31 41 C-31.99 41.33 -32.98 41.66 -34 42 C-34 42.33 -34 42.66 -34 43 C-29.47152279 44.12311569 -29.47152279 44.12311569 -25.125 43.0625 C-23.91636236 40.84666433 -23.70993897 39.36268041 -23.4375 36.875 C-23.2209375 34.956875 -23.2209375 34.956875 -23 33 C-22.34 32.67 -21.68 32.34 -21 32 C-21 31.34 -21 30.68 -21 30 C-18.98177083 30.03255208 -16.96354167 30.06510417 -14.9453125 30.09765625 C-12.91814596 30.12649242 -12.91814596 30.12649242 -11 29 C-10.896875 28.21625 -10.79375 27.4325 -10.6875 26.625 C-10 24 -10 24 -7.625 22.3125 C-6.75875 21.879375 -5.8925 21.44625 -5 21 C-4.01 20.34 -3.02 19.68 -2 19 C-2.33 17.35 -2.66 15.7 -3 14 C-7.02654317 12.65781894 -10.15893589 13.46508659 -14 15 Z M12.4765625 37.9296875 C6.73066121 39.18521863 1.23470673 39.22670386 -4.625 39.125 C-6.13126953 39.11146484 -6.13126953 39.11146484 -7.66796875 39.09765625 C-10.11224126 39.07437746 -12.55598408 39.04168487 -15 39 C-15.31126351 45.81410258 -15.31126351 45.81410258 -13.5625 52.3125 C-12.45593469 54.86241138 -11.61731457 57.28501457 -11 60 C3.46493144 60.84509859 3.46493144 60.84509859 17 57 C17.721875 56.67 18.44375 56.34 19.1875 56 C21.17201523 55.12855431 21.17201523 55.12855431 22 53 C21.855625 52.154375 21.71125 51.30875 21.5625 50.4375 C20.87809003 46.2549946 20.91547543 42.2262287 21 38 C17.77565024 36.95210925 15.74121195 37.10556836 12.4765625 37.9296875 Z " fill="#181818" transform="translate(179,24)"/>
<path d="M0 0 C4.61966401 1.8478656 7.73788585 4.25816318 11 8 C11 8.66 11 9.32 11 10 C11.66 10 12.32 10 13 10 C13.33 7.36 13.66 4.72 14 2 C15.9914056 1.61866701 17.99279077 1.28674418 20 1 C21 2 21 2 21.0625 4.5625 C21.041875 5.366875 21.02125 6.17125 21 7 C21.66 7 22.32 7 23 7 C23 5.35 23 3.7 23 2 C24.7421875 1.29296875 24.7421875 1.29296875 27 1 C29.0703125 2.36328125 29.0703125 2.36328125 31.125 4.3125 C31.80820313 4.94800781 32.49140625 5.58351563 33.1953125 6.23828125 C34.47150175 7.48408504 35.73891196 8.73891196 37 10 C37.33 7.36 37.66 4.72 38 2 C39.299375 2.020625 40.59875 2.04125 41.9375 2.0625 C45.94736326 2.06878505 49.80732342 1.71939707 53.78125 1.22265625 C57.1989571 0.87968212 60.56762726 0.93759322 64 1 C64.625 3.3125 64.625 3.3125 65 6 C63 9 63 9 59.875 9.6875 C58.451875 9.8421875 58.451875 9.8421875 57 10 C59.97 10.495 59.97 10.495 63 11 C63.53625 10.113125 64.0725 9.22625 64.625 8.3125 C67.02393516 4.75633203 69.43607168 2.42347126 73 0 C77.65659544 -0.76026048 80.19686343 0.31543301 84 3 C84.66 2.01 85.32 1.02 86 0 C87.84765625 -0.38818359 87.84765625 -0.38818359 90.0625 -0.3984375 C90.85914063 -0.40230469 91.65578125 -0.40617187 92.4765625 -0.41015625 C93.30929687 -0.39855469 94.14203125 -0.38695313 95 -0.375 C95.83273437 -0.38660156 96.66546875 -0.39820312 97.5234375 -0.41015625 C98.32007813 -0.40628906 99.11671875 -0.40242188 99.9375 -0.3984375 C100.66839844 -0.39505371 101.39929688 -0.39166992 102.15234375 -0.38818359 C104 0 104 0 106 3 C105.625 5.6875 105.625 5.6875 105 8 C103.02 8 101.04 8 99 8 C99.165 8.7425 99.33 9.485 99.5 10.25 C100.20054587 15.50409401 100.07707499 20.70751749 100 26 C96.71303767 26.79953138 95.28976808 27.09658936 92 26 C91.83210874 23.56257869 91.66563867 21.12507454 91.5 18.6875 C91.42845703 17.65206055 91.42845703 17.65206055 91.35546875 16.59570312 C91.16120511 13.72337641 91 10.87986212 91 8 C87.13351728 9.04097612 83.50538557 10.03698408 80 12 C79.01 10.515 79.01 10.515 78 9 C74.70924004 9.37904208 74.70924004 9.37904208 72 11 C71.95936168 12.66617115 71.957279 14.33388095 72 16 C75.94318623 17.69309393 75.94318623 17.69309393 80.0625 17.4375 C82 17 82 17 84.75 18.4375 C85.4925 18.953125 86.235 19.46875 87 20 C85.63016497 23.16115776 85.0109362 23.9927092 82 26 C77.47749084 26.59022577 73.30436029 26.52729459 69.0625 24.8125 C66.70989182 22.74505645 65.36898509 20.81002203 64 18 C64 17.34 64 16.68 64 16 C60.7 16.66 57.4 17.32 54 18 C54 18.66 54 19.32 54 20 C56.97 19.67 59.94 19.34 63 19 C64.35439668 21.70879335 64.06501451 24.00933268 64 27 C57.66666667 27 51.33333333 27 45 27 C44.23300781 27.1134375 43.46601563 27.226875 42.67578125 27.34375 C40 27 40 27 37.54296875 24.59375 C36.76566406 23.5728125 35.98835938 22.551875 35.1875 21.5 C34.39730469 20.4790625 33.60710937 19.458125 32.79296875 18.40625 C32.20128906 17.6121875 31.60960937 16.818125 31 16 C30.67 19.63 30.34 23.26 30 27 C27.69 27 25.38 27 23 27 C22.505 21.555 22.505 21.555 22 16 C21.67 19.96 21.34 23.92 21 28 C14.49056958 26.3726424 11.19585793 20.97908474 7 16 C5.74552282 17.02551727 5.74552282 17.02551727 5.9375 19.21484375 C5.97910692 21.02734512 6.02077341 22.83984513 6.0625 24.65234375 C6 27 6 27 5 29 C2 29.6875 2 29.6875 -1 30 C-2 29 -2 29 -2.125 25.625 C-2 22 -2 22 -1 19 C-1.66 19 -2.32 19 -3 19 C-3.226875 19.7425 -3.45375 20.485 -3.6875 21.25 C-5.52092678 25.09146563 -8.22976824 27.11488412 -12 29 C-17.71397971 29.54942113 -20.50641332 28.53067525 -25 25 C-25.33 24.67 -25.66 24.34 -26 24 C-26.804375 24.928125 -26.804375 24.928125 -27.625 25.875 C-31.15255141 29.03123021 -34.22382768 30 -38.9375 30 C-43.20262274 28.60730686 -46.04126077 26.34907422 -49 23 C-50.4375 20 -50.4375 20 -51 17 C-51.185625 16.05125 -51.37125 15.1025 -51.5625 14.125 C-50.69445879 9.30254882 -47.59006587 6.22106553 -44 3 C-38.82081605 1.27360535 -34.55287334 1.37885066 -29.5625 3.375 C-27 5 -27 5 -26 7 C-25.236875 6.360625 -24.47375 5.72125 -23.6875 5.0625 C-19.97802917 2.21569681 -16.81078309 1.55775781 -12.140625 1.56640625 C-8.20967208 2.36263941 -5.69195402 5.17344828 -3 8 C-2.814375 6.2984375 -2.814375 6.2984375 -2.625 4.5625 C-2.41875 3.386875 -2.2125 2.21125 -2 1 C-1.34 0.67 -0.68 0.34 0 0 Z M45 7 C46 10 46 10 46 10 Z M-42 11 C-43.41441874 13.82883747 -43.31900332 15.87376745 -43 19 C-41.48105194 21.09764165 -41.48105194 21.09764165 -39 22 C-35.12273569 21.76261647 -33.25923117 21.17282078 -30 19 C-29.34 20.32 -28.68 21.64 -28 23 C-27.67 22.34 -27.34 21.68 -27 21 C-27.33 20.34 -27.66 19.68 -28 19 C-28.22467831 17.46331135 -28.40796805 15.92031946 -28.5625 14.375 C-28.68818359 13.14910156 -28.68818359 13.14910156 -28.81640625 11.8984375 C-28.87699219 11.27195313 -28.93757813 10.64546875 -29 10 C-30.98 10.99 -30.98 10.99 -33 12 C-33 11.34 -33 10.68 -33 10 C-36.74383599 8.96004556 -38.72782326 8.77959436 -42 11 Z M-21 12 C-21.39907251 15.12606798 -21.46880951 17.14511207 -19.9375 19.9375 C-16.81651045 21.6490104 -14.35466116 20.79291991 -11 20 C-8.68436913 18.11499729 -8.68436913 18.11499729 -8.75 15 C-8.68436913 11.88500271 -8.68436913 11.88500271 -11 10 C-15.33643601 9.68462284 -17.32653229 9.55102153 -21 12 Z M46 19 C46 20.65 46 22.3 46 24 C46.33 24 46.66 24 47 24 C47 22.35 47 20.7 47 19 C46.67 19 46.34 19 46 19 Z " fill="#393922" transform="translate(207,117)"/>
<path d="M0 0 C2.3125 -0.3125 2.3125 -0.3125 5 0 C7.68902045 3.30956364 8.8669511 7.21675849 10.15625 11.23046875 C10.98677867 13.36118005 10.98677867 13.36118005 14 15 C13.67 12.69 13.34 10.38 13 8 C12.01 8 11.02 8 10 8 C10 7.01 10 6.02 10 5 C10.99 4.67 11.98 4.34 13 4 C13.73323796 1.98491642 13.73323796 1.98491642 14 0 C16.31 0 18.62 0 21 0 C22.09651823 3.41139003 21.94215473 6.20655581 21.5625 9.75 C21.46066406 10.73484375 21.35882813 11.7196875 21.25390625 12.734375 C21.17011719 13.48203125 21.08632812 14.2296875 21 15 C21.99 15 22.98 15 24 15 C24.495 16.485 24.495 16.485 25 18 C27.1610662 13.00253441 27.13830815 8.62984094 26.97265625 3.29296875 C27 1 27 1 28 0 C30.07262076 -0.08767112 32.14820294 -0.10695873 34.22265625 -0.09765625 C35.48271484 -0.09443359 36.74277344 -0.09121094 38.04101562 -0.08789062 C39.38151109 -0.07953403 40.72200588 -0.07106907 42.0625 -0.0625 C43.40689942 -0.0574866 44.7513006 -0.05292342 46.09570312 -0.04882812 C49.39717941 -0.03699488 52.69856803 -0.02050971 56 0 C56 1.32 56 2.64 56 4 C56.74443359 3.566875 56.74443359 3.566875 57.50390625 3.125 C62.16623338 0.57708688 65.56932435 -0.78991646 71 0 C75.14042892 1.68017405 79.09206319 3.84743166 81 8 C81.72737541 12.75521674 81.48141334 16.07155999 79.25 20.375 C76.35276775 23.7551043 74.49357532 25.56852268 70.1875 26.8125 C66.22250249 27.04573515 63.67251147 26.53577752 60 25 C57.10741972 22.39742134 55.24055408 19.72166225 54 16 C53.96045766 13.66700175 53.95598268 11.33291811 54 9 C52.35 8.67 50.7 8.34 49 8 C49 13.94 49 19.88 49 26 C47.35 26.33 45.7 26.66 44 27 C42.65668346 28.99330842 41.32405988 30.99384866 40 33 C34.71196621 36.86929302 29.25786655 36.26524709 23 36 C22.01 36 21.02 36 20 36 C13.46337141 35.65345113 7.01043189 34.78406707 0.5625 33.6875 C-0.12352295 33.58203857 -0.8095459 33.47657715 -1.51635742 33.36791992 C-5.88498383 32.58190119 -8.24291877 31.49498618 -11 28 C-12.25 25.75 -12.25 25.75 -13 24 C-13.66 24 -14.32 24 -15 24 C-15 23.01 -15 22.02 -15 21 C-14.34 21 -13.68 21 -13 21 C-12.67 19.68 -12.34 18.36 -12 17 C-11.01 17 -10.02 17 -9 17 C-9.75150023 13.72226496 -9.75150023 13.72226496 -13 12 C-13 10.68 -13 9.36 -13 8 C-6.3798768 5.07186858 -6.3798768 5.07186858 -3.6875 4.5625 C-1.77233072 4.12642602 -1.77233072 4.12642602 -0.75 1.9375 C-0.37875 0.9784375 -0.37875 0.9784375 0 0 Z M63.1875 8.125 C61.42997586 10.90003811 61.53177254 12.78929745 62 16 C63.57695632 18.0785608 63.57695632 18.0785608 66 19 C69.21291699 18.92163617 70.54978393 18.40664678 72.9375 16.25 C74.29818662 13.99222594 74.29818662 13.99222594 73.3125 11.375 C72.09178154 8.90720055 72.09178154 8.90720055 70 7 C67.19015752 6.63976378 65.61758081 6.61667398 63.1875 8.125 Z M36 8 C35.66104344 9.72807318 35.32908475 11.45751974 35 13.1875 C34.7215625 14.63189453 34.7215625 14.63189453 34.4375 16.10546875 C34.03122388 18.7934206 33.92066428 21.28771019 34 24 C31.89651926 24.19504458 29.79217415 24.38078496 27.6875 24.5625 C25.92986328 24.71912109 25.92986328 24.71912109 24.13671875 24.87890625 C21 25 21 25 18 24 C18 24.66 18 25.32 18 26 C16.39431334 25.71682074 14.79047953 25.42312209 13.1875 25.125 C12.29417969 24.96257812 11.40085937 24.80015625 10.48046875 24.6328125 C8 24 8 24 5 22 C2.37468476 21.83286431 2.37468476 21.83286431 0 22 C0 22.66 0 23.32 0 24 C-2.31 24.33 -4.62 24.66 -7 25 C-7 25.66 -7 26.32 -7 27 C5.76717614 34.40496216 17.14984445 34.50750692 31 31 C31.495 32.485 31.495 32.485 32 34 C36.19649525 32.60116825 36.96862668 30.28054476 38.9921875 26.5 C40.48726945 22.79126957 40.35942252 19.95364771 40 16 C40.66 16 41.32 16 42 16 C41.505 12.04 41.505 12.04 41 8 C39.35 8 37.7 8 36 8 Z M12 17 C12.99 18.485 12.99 18.485 14 20 C14 19.01 14 18.02 14 17 C13.34 17 12.68 17 12 17 Z M14 20 C14.66 21.32 15.32 22.64 16 24 C16.66 23.67 17.32 23.34 18 23 C16.68 22.01 15.36 21.02 14 20 Z M-12 21 C-11 23 -11 23 -11 23 Z " fill="#919456" transform="translate(68,120)"/>
<path d="M0 0 C2.04698414 2.04698414 1.70045693 6.30411241 2 9 C2.33 9 2.66 9 3 9 C3.33 6.03 3.66 3.06 4 0 C17.15709432 -0.56387547 26.0149687 3.42904793 36.6875 10.875 C44.31866514 17.88742202 49.24090819 24.8864285 50.23828125 35.546875 C50.25 37.75 50.25 37.75 50 41 C56.28031451 40.66090073 56.28031451 40.66090073 61 37 C63.5 36.5625 63.5 36.5625 66 37 C67.8125 39 67.8125 39 69 41 C68.13375 40.4740625 68.13375 40.4740625 67.25 39.9375 C64.6037015 38.83487562 63.62384878 38.95046049 61 40 C60.01 40.99 60.01 40.99 59 42 C54.95338244 42.91183782 51.08262326 43.11898259 46.9453125 43.09765625 C45.83671875 43.09443359 44.728125 43.09121094 43.5859375 43.08789062 C42.44382812 43.07951172 41.30171875 43.07113281 40.125 43.0625 C38.9596875 43.05798828 37.794375 43.05347656 36.59375 43.04882812 C33.72914449 43.03708794 30.86456554 43.01915386 28 43 C28 39.04 28 35.08 28 31 C28.33 31 28.66 31 29 31 C29.495 35.95 29.495 35.95 30 41 C33.63 41 37.26 41 41 41 C40.34 40.34 39.68 39.68 39 39 C38.39797248 37.30519267 37.84159854 35.59397172 37.3125 33.875 C34.32391904 25.56131115 30.11253602 20.84751921 22.3125 16.6875 C16.39391909 13.94145803 10.38086581 12.28974947 4 11 C3.67 13.97 3.34 16.94 3 20 C6.3 20.33 9.6 20.66 13 21 C13 21.33 13 21.66 13 22 C5.63512596 22.99862699 -1.57313685 23.10331031 -9 23 C-7.60804085 20.2160817 -5.84424221 20.02101003 -3 19 C-3 17.68 -3 16.36 -3 15 C-5.99531539 14.00156154 -7.17255732 13.99267239 -10.1875 14.4375 C-11.445625 14.623125 -12.70375 14.80875 -14 15 C-14.33 15.99 -14.66 16.98 -15 18 C-16.33721357 19.03017097 -17.72012096 20.00170769 -19.125 20.9375 C-24.77711942 25.16980702 -28.17986991 30.57082884 -31 37 C-31 38.32 -31 39.64 -31 41 C-31.99 41.495 -31.99 41.495 -33 42 C-30.36 42.33 -27.72 42.66 -25 43 C-24.95101562 42.28972656 -24.90203125 41.57945313 -24.8515625 40.84765625 C-24.77679688 39.92855469 -24.70203125 39.00945313 -24.625 38.0625 C-24.55539063 37.14597656 -24.48578125 36.22945312 -24.4140625 35.28515625 C-24.27742188 34.53105469 -24.14078125 33.77695312 -24 33 C-23.01 32.505 -23.01 32.505 -22 32 C-22 36.29 -22 40.58 -22 45 C-25.9510554 45.02294161 -29.90194133 45.04285915 -33.85302734 45.05493164 C-35.85906551 45.06244036 -37.86508202 45.0751447 -39.87109375 45.08789062 C-41.75634766 45.09272461 -41.75634766 45.09272461 -43.6796875 45.09765625 C-45.42354736 45.10551147 -45.42354736 45.10551147 -47.20263672 45.11352539 C-50 45 -50 45 -52 44 C-51.67 43.34 -51.34 42.68 -51 42 C-48.69 42.33 -46.38 42.66 -44 43 C-43.86722656 42.32324219 -43.73445312 41.64648438 -43.59765625 40.94921875 C-42.65862313 36.31542787 -41.63186585 31.70063102 -40.62109375 27.08203125 C-39.93415016 24.19723406 -39.93415016 24.19723406 -40 22 C-39.38125 21.938125 -38.7625 21.87625 -38.125 21.8125 C-37.42375 21.544375 -36.7225 21.27625 -36 21 C-35.72800781 20.25105469 -35.45601562 19.50210938 -35.17578125 18.73046875 C-31.7969927 10.88404616 -22.06276026 6.05067732 -14.5078125 2.9296875 C-9.68415388 1.14147761 -5.23790718 -0.46216828 0 0 Z " fill="#323124" transform="translate(179,24)"/>
<path d="M0 0 C2.875 1.5 2.875 1.5 5 3 C5.66 2.01 6.32 1.02 7 0 C8.84765625 -0.38818359 8.84765625 -0.38818359 11.0625 -0.3984375 C11.85914063 -0.40230469 12.65578125 -0.40617187 13.4765625 -0.41015625 C14.30929687 -0.39855469 15.14203125 -0.38695313 16 -0.375 C16.83273437 -0.38660156 17.66546875 -0.39820312 18.5234375 -0.41015625 C19.32007813 -0.40628906 20.11671875 -0.40242188 20.9375 -0.3984375 C21.66839844 -0.39505371 22.39929688 -0.39166992 23.15234375 -0.38818359 C25 0 25 0 27 3 C26.625 5.6875 26.625 5.6875 26 8 C24.02 8 22.04 8 20 8 C20.165 8.7425 20.33 9.485 20.5 10.25 C21.20054587 15.50409401 21.07707499 20.70751749 21 26 C17.71303767 26.79953138 16.28976808 27.09658936 13 26 C12.83210874 23.56257869 12.66563867 21.12507454 12.5 18.6875 C12.45230469 17.99720703 12.40460938 17.30691406 12.35546875 16.59570312 C12.16120511 13.72337641 12 10.87986212 12 8 C8.13351728 9.04097612 4.50538557 10.03698408 1 12 C0.34 11.01 -0.32 10.02 -1 9 C-4.29075996 9.37904208 -4.29075996 9.37904208 -7 11 C-7.04063832 12.66617115 -7.042721 14.33388095 -7 16 C-3.05681377 17.69309393 -3.05681377 17.69309393 1.0625 17.4375 C3 17 3 17 5.75 18.4375 C6.4925 18.953125 7.235 19.46875 8 20 C6.63016497 23.16115776 6.0109362 23.9927092 3 26 C-1.52250916 26.59022577 -5.69563971 26.52729459 -9.9375 24.8125 C-12.29010818 22.74505645 -13.63101491 20.81002203 -15 18 C-15 17.34 -15 16.68 -15 16 C-18.3 16.66 -21.6 17.32 -25 18 C-25 18.66 -25 19.32 -25 20 C-22.03 19.67 -19.06 19.34 -16 19 C-14.64560332 21.70879335 -14.93498549 24.00933268 -15 27 C-23 27 -31 27 -39 27 C-39 26.01 -39 25.02 -39 24 C-37.68 24.66 -36.36 25.32 -35 26 C-35 18.41 -35 10.82 -35 3 C-36.65 3 -38.3 3 -40 3 C-40 6.63 -40 10.26 -40 14 C-41.65 12.68 -43.3 11.36 -45 10 C-44.67 9.34 -44.34 8.68 -44 8 C-43.34 8.66 -42.68 9.32 -42 10 C-41.67 7.36 -41.34 4.72 -41 2 C-39.700625 2.020625 -38.40125 2.04125 -37.0625 2.0625 C-33.05263674 2.06878505 -29.19267658 1.71939707 -25.21875 1.22265625 C-21.8010429 0.87968212 -18.43237274 0.93759322 -15 1 C-14.375 3.3125 -14.375 3.3125 -14 6 C-16 9 -16 9 -19.125 9.6875 C-20.07375 9.790625 -21.0225 9.89375 -22 10 C-19.03 10.495 -19.03 10.495 -16 11 C-15.46375 10.113125 -14.9275 9.22625 -14.375 8.3125 C-10.77843227 2.98096826 -6.9109793 -1.1763369 0 0 Z M-34 7 C-33 10 -33 10 -33 10 Z M-33 19 C-33 20.65 -33 22.3 -33 24 C-32.67 24 -32.34 24 -32 24 C-32 22.35 -32 20.7 -32 19 C-32.33 19 -32.66 19 -33 19 Z " fill="#353522" transform="translate(286,117)"/>
<path d="M0 0 C1.25361328 0.00966797 2.50722656 0.01933594 3.79882812 0.02929688 C5.10916016 0.05443359 6.41949219 0.07957031 7.76953125 0.10546875 C9.10480288 0.12051908 10.44009062 0.13420688 11.77539062 0.14648438 C15.04444377 0.18188928 18.31328808 0.23569681 21.58203125 0.29296875 C22.07703125 9.20296875 22.07703125 9.20296875 22.58203125 18.29296875 C20.93853046 15.00596718 20.16881456 12.8136686 19.58203125 9.29296875 C16.94203125 9.29296875 14.30203125 9.29296875 11.58203125 9.29296875 C14.24597237 13.79109884 16.79517341 17.64636491 20.58203125 21.29296875 C20.58203125 21.95296875 20.58203125 22.61296875 20.58203125 23.29296875 C21.17113281 23.58171875 21.76023438 23.87046875 22.3671875 24.16796875 C24.28666325 25.14294056 26.15867997 26.21029164 28.01953125 27.29296875 C32.75245757 29.72653389 37.57809602 30.11858961 42.82421875 30.60546875 C45.58203125 31.29296875 45.58203125 31.29296875 46.98828125 33.12109375 C47.86568535 36.33054559 47.20204531 39.06889566 46.58203125 42.29296875 C33.52035841 42.83720512 21.78199322 38.65920084 11.65234375 30.30859375 C5.73664299 24.54915678 0.11947547 16.70565547 -0.58984375 8.2421875 C-0.60307566 6.59150645 -0.52093871 4.94048816 -0.41796875 3.29296875 C-3.38796875 2.79796875 -3.38796875 2.79796875 -6.41796875 2.29296875 C-6.41796875 2.95296875 -6.41796875 3.61296875 -6.41796875 4.29296875 C-9.81528504 6.38362493 -12.4606628 6.71395874 -16.41796875 6.29296875 C-18.29296875 4.79296875 -18.29296875 4.79296875 -19.41796875 3.29296875 C-19.08796875 2.63296875 -18.75796875 1.97296875 -18.41796875 1.29296875 C-17.75796875 1.95296875 -17.09796875 2.61296875 -16.41796875 3.29296875 C-12.95996516 3.70970082 -12.95996516 3.70970082 -9.41796875 3.29296875 C-8.98186279 2.79756592 -8.54575684 2.30216309 -8.09643555 1.79174805 C-5.53791353 -0.49287256 -3.36850521 -0.04572632 0 0 Z " fill="#201F18" transform="translate(136.41796875,72.70703125)"/>
<path d="M0 0 C4.21749219 -0.07419134 8.43463811 -0.1286204 12.65258789 -0.16479492 C14.08722552 -0.17987589 15.52181708 -0.2003438 16.95629883 -0.22631836 C19.01915859 -0.26273437 21.08140858 -0.27973243 23.14453125 -0.29296875 C25.00621948 -0.31653442 25.00621948 -0.31653442 26.90551758 -0.34057617 C30.27114086 0.02984154 30.93470648 0.4777125 33 3 C35.32488881 2.7181953 36.90892835 2.04553582 39 1 C38.34 2.32 37.68 3.64 37 5 C34.625 5.125 34.625 5.125 32 5 C31.34 4.34 30.68 3.68 30 3 C27.79749008 2.53993654 27.79749008 2.53993654 25.375 2.375 C24.55773437 2.30023438 23.74046875 2.22546875 22.8984375 2.1484375 C22.27195313 2.09945312 21.64546875 2.05046875 21 2 C21.0825 3.27875 21.165 4.5575 21.25 5.875 C21.25752184 10.66641372 19.99907656 14.2350339 18.0703125 18.578125 C17.08840319 20.7999636 16.31677663 23.00632087 15.5625 25.3125 C14.14226139 29.1125979 12.1839895 31.42248469 9 34 C7.34311392 34.6906162 5.6740866 35.35219118 4 36 C2.78432675 36.55635972 1.57234399 37.12082332 0.36328125 37.69140625 C-7.04583823 41.13642825 -13.64419816 44.14060243 -22 44 C-23.20272819 41.59454362 -23.10071472 40.05003047 -23.0625 37.375 C-23.05347656 36.55773437 -23.04445312 35.74046875 -23.03515625 34.8984375 C-23.02355469 34.27195313 -23.01195312 33.64546875 -23 33 C-21.78376953 32.79697266 -21.78376953 32.79697266 -20.54296875 32.58984375 C-12.20998907 30.96981161 -5.66225984 28.33951608 1 23 C1.66 22.01 2.32 21.02 3 20 C3.66 20 4.32 20 5 20 C7.05847771 16.26780677 8.31255403 12.2865344 9.625 8.25 C9.85445312 7.55261719 10.08390625 6.85523437 10.3203125 6.13671875 C10.88294552 4.42537664 11.44184608 2.7128082 12 1 C10.906875 1.185625 9.81375 1.37125 8.6875 1.5625 C5 2 5 2 2 1 C2.185625 1.969375 2.37125 2.93875 2.5625 3.9375 C3.23861651 8.7487059 3.5762367 14.42448871 0.96484375 18.69140625 C-2.13568503 20.75637075 -5.56673078 20.84281542 -9.1875 21.1875 C-10.31188477 21.3102832 -10.31188477 21.3102832 -11.45898438 21.43554688 C-13.30475918 21.63540784 -15.15225433 21.81926538 -17 22 C-17 21.34 -17 20.68 -17 20 C-16.02417969 19.89042969 -15.04835937 19.78085938 -14.04296875 19.66796875 C-12.77066406 19.50941406 -11.49835938 19.35085937 -10.1875 19.1875 C-8.92292969 19.03667969 -7.65835938 18.88585937 -6.35546875 18.73046875 C-2.39835794 17.92509117 -2.39835794 17.92509117 0 15 C0.2172101 12.35003674 0.28351554 9.94923442 0.1875 7.3125 C0.17396484 6.61060547 0.16042969 5.90871094 0.14648438 5.18554688 C0.11120182 3.45670171 0.05739583 1.72825235 0 0 Z " fill="#252720" transform="translate(208,71)"/>
<path d="M0 0 C0 1.65 0 3.3 0 5 C0.66 5 1.32 5 2 5 C2 3.35 2 1.7 2 0 C3.77734375 -0.6640625 3.77734375 -0.6640625 6 -1 C10.46556682 1.55449629 13.66913893 5.46777015 16 10 C16.495 10.495 16.495 10.495 17 11 C17.33 7.7 17.66 4.4 18 1 C19.65 1 21.3 1 23 1 C23 8.59 23 16.18 23 24 C16.84805643 22.46201411 13.73594684 18.98126245 10 14 C9.67 17.63 9.34 21.26 9 25 C6.69 25 4.38 25 2 25 C1.67 21.37 1.34 17.74 1 14 C0.67 17.96 0.34 21.92 0 26 C-6.43117485 24.39220629 -8.68505901 20.17144194 -12.046875 14.8046875 C-13 13 -13 13 -13 11 C-14.32 10.67 -15.64 10.34 -17 10 C-17 15.28 -17 20.56 -17 26 C-18.32 26 -19.64 26 -21 26 C-21 17.75 -21 9.5 -21 1 C-16.13191012 1.97361798 -13.8549197 3.04157325 -10 6 C-10 6.66 -10 7.32 -10 8 C-9.34 8 -8.68 8 -8 8 C-7.67 5.36 -7.34 2.72 -7 0 C-3.86650268 -1.04449911 -3.01031744 -0.93423645 0 0 Z " fill="#18170F" transform="translate(228,119)"/>
<path d="M0 0 C2.3125 -0.3125 2.3125 -0.3125 5 0 C7.68902045 3.30956364 8.8669511 7.21675849 10.15625 11.23046875 C10.98677867 13.36118005 10.98677867 13.36118005 14 15 C13.67 12.69 13.34 10.38 13 8 C12.01 8 11.02 8 10 8 C10 7.01 10 6.02 10 5 C10.99 4.67 11.98 4.34 13 4 C13.73323796 1.98491642 13.73323796 1.98491642 14 0 C16.31 0 18.62 0 21 0 C22.09651823 3.41139003 21.94215473 6.20655581 21.5625 9.75 C21.46066406 10.73484375 21.35882813 11.7196875 21.25390625 12.734375 C21.17011719 13.48203125 21.08632812 14.2296875 21 15 C21.99 15 22.98 15 24 15 C23.505 17.475 23.505 17.475 23 20 C24.98 19.34 26.96 18.68 29 18 C29 12.72 29 7.44 29 2 C30.65 2 32.3 2 34 2 C34.68638551 17.88219805 34.68638551 17.88219805 32.5625 22.4375 C29.40681307 25.59318693 27.46541701 25.85884555 23.12109375 26.02734375 C22.42113281 26.01832031 21.72117187 26.00929687 21 26 C18.70748122 26 16.41483973 26.0767013 14.125 26.1875 C10.25177772 26.20166169 8.23087457 25.18302336 5 23 C2.30745009 22.29329272 2.30745009 22.29329272 0 22 C0 22.66 0 23.32 0 24 C-2.97 24 -5.94 24 -9 24 C-7.82412506 18.22752302 -5.90319085 13.55720553 -3.17578125 8.34375 C-1.81875161 5.63870753 -0.8409471 2.90508999 0 0 Z M12 17 C12.99 18.485 12.99 18.485 14 20 C14 19.01 14 18.02 14 17 C13.34 17 12.68 17 12 17 Z M14 20 C14.66 21.32 15.32 22.64 16 24 C16.66 23.67 17.32 23.34 18 23 C16.68 22.01 15.36 21.02 14 20 Z " fill="#1F1F14" transform="translate(68,120)"/>
<path d="M0 0 C0 3.63 0 7.26 0 11 C-1.44375 11.226875 -2.8875 11.45375 -4.375 11.6875 C-13.40775238 13.52726852 -21.43491424 17.48034753 -27 25 C-29.93695409 30.06325569 -32.81401531 35.22177226 -34 41 C-36.64 41 -39.28 41 -42 41 C-42.25356877 34.91434964 -41.64548133 29.86202724 -40 24 C-40 23.34 -40 22.68 -40 22 C-39.38125 21.938125 -38.7625 21.87625 -38.125 21.8125 C-37.42375 21.544375 -36.7225 21.27625 -36 21 C-35.72800781 20.25105469 -35.45601562 19.50210938 -35.17578125 18.73046875 C-31.7969927 10.88404616 -22.06276026 6.05067732 -14.5078125 2.9296875 C-9.44358664 1.05229536 -5.51865571 0 0 0 Z " fill="#171915" transform="translate(179,24)"/>
<path d="M0 0 C1.75570313 0.01353516 1.75570313 0.01353516 3.546875 0.02734375 C4.43890625 0.03894531 5.3309375 0.05054687 6.25 0.0625 C6.875 2.375 6.875 2.375 7.25 5.0625 C5.25 8.0625 5.25 8.0625 2.125 8.75 C1.17625 8.853125 0.2275 8.95625 -0.75 9.0625 C1.725 9.5575 1.725 9.5575 4.25 10.0625 C4.25 12.0425 4.25 14.0225 4.25 16.0625 C0.29 16.5575 0.29 16.5575 -3.75 17.0625 C-3.75 17.7225 -3.75 18.3825 -3.75 19.0625 C-0.78 18.7325 2.19 18.4025 5.25 18.0625 C6.60439668 20.77129335 6.31501451 23.07183268 6.25 26.0625 C-1.75 26.0625 -9.75 26.0625 -17.75 26.0625 C-17.75 25.0725 -17.75 24.0825 -17.75 23.0625 C-16.43 23.7225 -15.11 24.3825 -13.75 25.0625 C-13.75 17.4725 -13.75 9.8825 -13.75 2.0625 C-15.4 2.0625 -17.05 2.0625 -18.75 2.0625 C-18.75 5.6925 -18.75 9.3225 -18.75 13.0625 C-20.4 11.7425 -22.05 10.4225 -23.75 9.0625 C-23.42 8.4025 -23.09 7.7425 -22.75 7.0625 C-22.09 7.7225 -21.43 8.3825 -20.75 9.0625 C-20.42 6.4225 -20.09 3.7825 -19.75 1.0625 C-19.14671875 1.07410156 -18.5434375 1.08570312 -17.921875 1.09765625 C-17.12265625 1.10667969 -16.3234375 1.11570312 -15.5 1.125 C-14.71109375 1.13660156 -13.9221875 1.14820312 -13.109375 1.16015625 C-10.80713347 1.15053207 -10.80713347 1.15053207 -8.875 0.5625 C-5.89594381 -0.1384544 -3.05474401 -0.03054744 0 0 Z M-12.75 6.0625 C-11.75 9.0625 -11.75 9.0625 -11.75 9.0625 Z M-11.75 18.0625 C-11.75 19.7125 -11.75 21.3625 -11.75 23.0625 C-11.42 23.0625 -11.09 23.0625 -10.75 23.0625 C-10.75 21.4125 -10.75 19.7625 -10.75 18.0625 C-11.08 18.0625 -11.41 18.0625 -11.75 18.0625 Z " fill="#0D0D08" transform="translate(264.75,117.9375)"/>
<path d="M0 0 C5.34797789 0.62393075 8.59480943 2.56039854 12.6875 6.125 C14.40267384 9.85802541 14.38607896 13.41132985 13.75 17.4375 C11.73293951 21.32754524 9.60407365 24.28375296 5.75 26.4375 C0.87769121 27.84505587 -2.53699427 27.21599273 -7.25 25.4375 C-10.02915234 23.39945495 -10.60551034 21.75201827 -11.25 18.4375 C-11.34124674 16.56425812 -11.38005514 14.68795609 -11.375 12.8125 C-11.37757812 11.85085937 -11.38015625 10.88921875 -11.3828125 9.8984375 C-11.25 7.4375 -11.25 7.4375 -10.25 5.4375 C-8.91666667 4.77083333 -7.58333333 4.10416667 -6.25 3.4375 C-5.816875 2.90125 -5.38375 2.365 -4.9375 1.8125 C-3.25 0.4375 -3.25 0.4375 0 0 Z M-4.0625 8.5625 C-5.82002414 11.33753811 -5.71822746 13.22679745 -5.25 16.4375 C-3.67304368 18.5160608 -3.67304368 18.5160608 -1.25 19.4375 C1.96291699 19.35913617 3.29978393 18.84414678 5.6875 16.6875 C7.04818662 14.42972594 7.04818662 14.42972594 6.0625 11.8125 C4.84178154 9.34470055 4.84178154 9.34470055 2.75 7.4375 C-0.05984248 7.07726378 -1.63241919 7.05417398 -4.0625 8.5625 Z " fill="#2B2B1D" transform="translate(135.25,119.5625)"/>
<path d="M0 0 C6.09781001 -0.22084624 11.21642935 -0.01167675 17 2 C13.34606463 3.26823485 10.50929974 2.75715321 6.75 2.0625 C5.67234375 1.86785156 4.5946875 1.67320313 3.484375 1.47265625 C2.66453125 1.31667969 1.8446875 1.16070313 1 1 C1 3.97 1 6.94 1 10 C1.65226562 10.03738281 2.30453125 10.07476562 2.9765625 10.11328125 C8.31622957 10.51493762 12.3204092 11.16761609 17 14 C13.76630321 15.6168484 10.69371743 14.00851816 7.375 13.0625 C6.66859375 12.86720703 5.9621875 12.67191406 5.234375 12.47070312 C3.48780156 11.98685508 1.74365876 11.49424877 0 11 C-0.33 13.97 -0.66 16.94 -1 20 C2.3 20.33 5.6 20.66 9 21 C9 21.33 9 21.66 9 22 C1.63512596 22.99862699 -5.57313685 23.10331031 -13 23 C-11.60804085 20.2160817 -9.84424221 20.02101003 -7 19 C-7 17.68 -7 16.36 -7 15 C-9.99531539 14.00156154 -11.17255732 13.99267239 -14.1875 14.4375 C-15.445625 14.623125 -16.70375 14.80875 -18 15 C-18.33 15.99 -18.66 16.98 -19 18 C-20.33721357 19.03017097 -21.72012096 20.00170769 -23.125 20.9375 C-28.77711942 25.16980702 -32.17986991 30.57082884 -35 37 C-35 38.32 -35 39.64 -35 41 C-35.99 41.495 -35.99 41.495 -37 42 C-34.36 42.33 -31.72 42.66 -29 43 C-28.95101562 42.28972656 -28.90203125 41.57945313 -28.8515625 40.84765625 C-28.77679688 39.92855469 -28.70203125 39.00945313 -28.625 38.0625 C-28.55539063 37.14597656 -28.48578125 36.22945312 -28.4140625 35.28515625 C-28.27742188 34.53105469 -28.14078125 33.77695312 -28 33 C-27.01 32.505 -27.01 32.505 -26 32 C-26 36.29 -26 40.58 -26 45 C-29.9510554 45.02294161 -33.90194133 45.04285915 -37.85302734 45.05493164 C-39.85906551 45.06244036 -41.86508202 45.0751447 -43.87109375 45.08789062 C-45.75634766 45.09272461 -45.75634766 45.09272461 -47.6796875 45.09765625 C-49.42354736 45.10551147 -49.42354736 45.10551147 -51.20263672 45.11352539 C-54 45 -54 45 -56 44 C-55.67 43.34 -55.34 42.68 -55 42 C-52.69 42.33 -50.38 42.66 -48 43 C-47.67 41.35 -47.34 39.7 -47 38 C-46.67 38.99 -46.34 39.98 -46 41 C-43.36 41 -40.72 41 -38 41 C-37.938125 40.21625 -37.87625 39.4325 -37.8125 38.625 C-35.70778183 29.23471894 -30.63082668 21.82926309 -23 16 C-16.87092134 12.58875726 -11.05999426 10.19772793 -4 11 C-4 7.7 -4 4.4 -4 1 C-3.67 1 -3.34 1 -3 1 C-2.505 4.96 -2.505 4.96 -2 9 C-1.67 9 -1.34 9 -1 9 C-0.67 6.03 -0.34 3.06 0 0 Z " fill="#BFB750" transform="translate(183,24)"/>
<path d="M0 0 C0.33 0.66 0.66 1.32 1 2 C-0.14453125 4.609375 -0.14453125 4.609375 -1.8125 7.75 C-3.94117017 11.77475405 -5.66310069 15.64366468 -7 20 C-5.02 20 -3.04 20 -1 20 C-2.32 20.33 -3.64 20.66 -5 21 C-5 21.66 -5 22.32 -5 23 C-4.030625 23.268125 -3.06125 23.53625 -2.0625 23.8125 C0.84874398 24.6375489 3.70294343 25.57377197 6.5625 26.5625 C12.94037371 28.67053246 17.23249033 29.12444312 23.7421875 27.48046875 C26.89960026 26.80856257 29.78313291 26.86311204 33 27 C33.495 27.99 33.495 27.99 34 29 C34.66 29 35.32 29 36 29 C40.38152875 22.04843348 40.38152875 22.04843348 41 14 C41.33 13.34 41.66 12.68 42 12 C42.66 12 43.32 12 44 12 C44 15.3 44 18.6 44 22 C44.66 22.33 45.32 22.66 46 23 C43.26489151 27.73384162 41.25506555 30.28016037 36 32 C32.31720466 32.2374295 28.68458111 32.15617534 25 32 C24.01 32 23.02 32 22 32 C15.46337141 31.65345113 9.01043189 30.78406707 2.5625 29.6875 C1.87647705 29.58203857 1.1904541 29.47657715 0.48364258 29.36791992 C-3.88498383 28.58190119 -6.24291877 27.49498618 -9 24 C-10.25 21.75 -10.25 21.75 -11 20 C-11.66 20 -12.32 20 -13 20 C-13 19.01 -13 18.02 -13 17 C-12.34 17 -11.68 17 -11 17 C-10.67 15.68 -10.34 14.36 -10 13 C-9.01 13 -8.02 13 -7 13 C-7.75150023 9.72226496 -7.75150023 9.72226496 -11 8 C-11 6.68 -11 5.36 -11 4 C-3.57142857 0.71428571 -3.57142857 0.71428571 0 0 Z M-10 17 C-9 19 -9 19 -9 19 Z " fill="#D3CF28" transform="translate(66,124)"/>
<path d="M0 0 C1.98 0 3.96 0 6 0 C7.09651823 3.41139003 6.94215473 6.20655581 6.5625 9.75 C6.46066406 10.73484375 6.35882813 11.7196875 6.25390625 12.734375 C6.12822266 13.85585937 6.12822266 13.85585937 6 15 C6.99 15 7.98 15 9 15 C8.67 16.65 8.34 18.3 8 20 C9.98 19.34 11.96 18.68 14 18 C14 12.72 14 7.44 14 2 C15.65 2 17.3 2 19 2 C19.68638551 17.88219805 19.68638551 17.88219805 17.5625 22.4375 C14.45485724 25.54514276 12.51082396 26.11688529 8.19140625 26.2734375 C4.80816838 25.85128661 3.19629833 24.53946994 1 22 C0.06937419 19.1820577 -0.11876141 16.62659788 -0.09765625 13.671875 C-0.09282227 12.47304687 -0.09282227 12.47304687 -0.08789062 11.25 C-0.07951172 10.425 -0.07113281 9.6 -0.0625 8.75 C-0.05798828 7.90953125 -0.05347656 7.0690625 -0.04882812 6.203125 C-0.03707961 4.13538599 -0.01914522 2.06768376 0 0 Z " fill="#18190F" transform="translate(83,120)"/>
<path d="M0 0 C5.7265625 -0.2109375 5.7265625 -0.2109375 8.1875 1.6875 C10.02290917 4.02922894 11.5325314 6.41446008 13 9 C13.33 9.33 13.66 9.66 14 10 C14.33 6.7 14.66 3.4 15 0 C16.65 0 18.3 0 20 0 C20 7.59 20 15.18 20 23 C15.78555546 21.94638887 14.10489425 20.94147876 11 18 C10 15.5 10 15.5 9 13 C7.35 11.68 5.7 10.36 4 9 C4 13.62 4 18.24 4 23 C3.01 23 2.02 23 1 23 C0.13190561 17.79826905 -0.12515348 12.83021184 -0.0625 7.5625 C-0.05798828 6.83095703 -0.05347656 6.09941406 -0.04882812 5.34570312 C-0.03718148 3.56376581 -0.01925191 1.78187137 0 0 Z " fill="#0E0E0B" transform="translate(231,120)"/>
<path d="M0 0 C0.66 0.33 1.32 0.66 2 1 C2.59355614 3.64860427 2.74209269 6.29197322 3 9 C3.53625 8.34 4.0725 7.68 4.625 7 C7 5 7 5 10.25 4.75 C11.1575 4.8325 12.065 4.915 13 5 C13.33 5.66 13.66 6.32 14 7 C13.071875 6.938125 12.14375 6.87625 11.1875 6.8125 C8.08461682 6.72956492 8.08461682 6.72956492 6.1875 8.1875 C4.72461964 10.42031739 4.35494045 12.37344067 4 15 C3.34 15 2.68 15 2 15 C2.02320312 15.62648438 2.04640625 16.25296875 2.0703125 16.8984375 C2.09738281 18.12433594 2.09738281 18.12433594 2.125 19.375 C2.14820312 20.18710938 2.17140625 20.99921875 2.1953125 21.8359375 C2 24 2 24 0 26 C-2.4375 26.8125 -2.4375 26.8125 -5 27 C-6.65234375 26 -6.65234375 26 -8 24 C-8.19320277 21.31565241 -8.23641373 18.85900756 -8.125 16.1875 C-7.97243403 11.3188507 -8.1860165 6.81186706 -9 2 C-6.79096092 -2.02824774 -3.99821987 -1.02082209 0 0 Z " fill="#252316" transform="translate(113,59)"/>
<path d="M0 0 C2.15184622 2.1666525 2.97119688 3.35810194 3.109375 6.4375 C2.99078125 7.283125 2.8721875 8.12875 2.75 9 C2.64171875 9.845625 2.5334375 10.69125 2.421875 11.5625 C2 14 2 14 1.41796875 16.15234375 C0.83583102 18.11809462 0.83583102 18.11809462 1.5625 20.5625 C2 23 2 23 0 26 C-3.625 26.1875 -3.625 26.1875 -7 26 C-9.36030051 20.86287535 -8.88908404 16.73485554 -8.19140625 11.29296875 C-8.12824219 10.53628906 -8.06507813 9.77960938 -8 9 C-8.33 8.67 -8.66 8.34 -9 8 C-9.29178308 5.22806071 -9.36366316 3.58590175 -7.875 1.1875 C-5.09996189 -0.57002414 -3.21070255 -0.46822746 0 0 Z " fill="#66613A" transform="translate(260,55)"/>
<path d="M0 0 C1.25361328 0.00966797 2.50722656 0.01933594 3.79882812 0.02929688 C5.10916016 0.05443359 6.41949219 0.07957031 7.76953125 0.10546875 C9.10480288 0.12051908 10.44009062 0.13420688 11.77539062 0.14648438 C15.04444377 0.18188928 18.31328808 0.23569681 21.58203125 0.29296875 C22.07703125 9.20296875 22.07703125 9.20296875 22.58203125 18.29296875 C20.93853046 15.00596718 20.16881456 12.8136686 19.58203125 9.29296875 C16.28203125 9.29296875 12.98203125 9.29296875 9.58203125 9.29296875 C9.25203125 7.64296875 8.92203125 5.99296875 8.58203125 4.29296875 C5.94203125 4.29296875 3.30203125 4.29296875 0.58203125 4.29296875 C1.37181128 6.68943868 2.1637891 9.08514483 2.95703125 11.48046875 C3.28960937 12.49077148 3.28960937 12.49077148 3.62890625 13.52148438 C4.83671057 17.16265916 6.10984097 20.75008092 7.58203125 24.29296875 C2.99153369 20.68614924 1.18590995 15.74782705 -0.41796875 10.29296875 C-0.69645258 7.83447871 -0.63347085 5.77124288 -0.41796875 3.29296875 C-3.38796875 2.79796875 -3.38796875 2.79796875 -6.41796875 2.29296875 C-6.41796875 2.95296875 -6.41796875 3.61296875 -6.41796875 4.29296875 C-9.81528504 6.38362493 -12.4606628 6.71395874 -16.41796875 6.29296875 C-18.29296875 4.79296875 -18.29296875 4.79296875 -19.41796875 3.29296875 C-19.08796875 2.63296875 -18.75796875 1.97296875 -18.41796875 1.29296875 C-17.75796875 1.95296875 -17.09796875 2.61296875 -16.41796875 3.29296875 C-12.95996516 3.70970082 -12.95996516 3.70970082 -9.41796875 3.29296875 C-8.98186279 2.79756592 -8.54575684 2.30216309 -8.09643555 1.79174805 C-5.53791353 -0.49287256 -3.36850521 -0.04572632 0 0 Z " fill="#A19D78" transform="translate(136.41796875,72.70703125)"/>
<path d="M0 0 C1.36125 0.37125 1.36125 0.37125 2.75 0.75 C2.75 1.41 2.75 2.07 2.75 2.75 C3.80127075 2.78758423 3.80127075 2.78758423 4.8737793 2.82592773 C8.06185488 2.94226545 11.24966242 3.06482044 14.4375 3.1875 C15.54029297 3.22681641 16.64308594 3.26613281 17.77929688 3.30664062 C18.84599609 3.34853516 19.91269531 3.39042969 21.01171875 3.43359375 C21.99100342 3.47025146 22.97028809 3.50690918 23.97924805 3.54467773 C26.64465177 3.74219333 29.14469788 4.16573033 31.75 4.75 C27.21877137 9.28122863 18.24151169 8.04265601 12.11914062 8.1796875 C10.95608398 8.22609375 10.95608398 8.22609375 9.76953125 8.2734375 C8.71922729 8.3031665 8.71922729 8.3031665 7.64770508 8.33349609 C5.23649257 8.86270342 4.45208247 10.01761927 2.75 11.75 C-3.2084 12.3884 -3.2084 12.3884 -6.1875 10.5625 C-7.66359492 8.04445572 -7.74089348 6.62523324 -7.25 3.75 C-4.94971635 0.38804698 -4.13126924 -0.31778994 0 0 Z " fill="#0E0E0E" transform="translate(124.25,65.25)"/>
<path d="M0 0 C2.9628331 0.39504441 5.38326241 1.59817629 8 3 C8.3125 5.75 8.3125 5.75 8 9 C5.75 11.4375 5.75 11.4375 3 13 C-0.05191378 12.82560493 -0.81258515 12.18741485 -3 10 C-5.71615864 9.62792646 -5.71615864 9.62792646 -8.8828125 9.5859375 C-10.04941406 9.54726562 -11.21601563 9.50859375 -12.41796875 9.46875 C-13.64128906 9.4378125 -14.86460937 9.406875 -16.125 9.375 C-17.35605469 9.33632812 -18.58710938 9.29765625 -19.85546875 9.2578125 C-22.90349376 9.1633001 -25.95150862 9.07774506 -29 9 C-29 8.67 -29 8.34 -29 8 C-27.02 8 -25.04 8 -23 8 C-23 7.34 -23 6.68 -23 6 C-24.32 5.67 -25.64 5.34 -27 5 C-25.78183594 4.95101562 -24.56367188 4.90203125 -23.30859375 4.8515625 C-21.68487563 4.77647727 -20.06117874 4.70093198 -18.4375 4.625 C-17.63763672 4.5940625 -16.83777344 4.563125 -16.01367188 4.53125 C-7.27967993 4.2228869 -7.27967993 4.2228869 0 0 Z " fill="#131212" transform="translate(241,62)"/>
<path d="M0 0 C0.79181404 5.64167505 1.0668637 11.1454187 1.03125 16.83984375 C1.02899414 17.53074097 1.02673828 18.22163818 1.02441406 18.93347168 C1.01857281 20.62232396 1.00960703 22.31116494 1 24 C-3.14408265 24.28788454 -7.2883678 24.57259951 -11.43286133 24.85449219 C-12.84014638 24.9506451 -14.24737452 25.04763511 -15.65454102 25.14550781 C-17.68751547 25.28675666 -19.72068161 25.42490504 -21.75390625 25.5625 C-23.58417358 25.68818359 -23.58417358 25.68818359 -25.45141602 25.81640625 C-28.97472903 25.99869255 -32.47267844 26.03165291 -36 26 C-38.25943749 17.95075394 -38.19676277 10.29683005 -38 2 C-37.06317383 1.96241577 -37.06317383 1.96241577 -36.10742188 1.92407227 C-33.23812877 1.80699619 -30.36907575 1.68478249 -27.5 1.5625 C-26.51773438 1.52318359 -25.53546875 1.48386719 -24.5234375 1.44335938 C-16.30208361 1.08710071 -8.22865626 -0.14694029 0 0 Z M-9.5234375 1.9296875 C-15.26933879 3.18521863 -20.76529327 3.22670386 -26.625 3.125 C-28.13126953 3.11146484 -28.13126953 3.11146484 -29.66796875 3.09765625 C-32.11224126 3.07437746 -34.55598408 3.04168487 -37 3 C-37.31126351 9.81410258 -37.31126351 9.81410258 -35.5625 16.3125 C-34.45593469 18.86241138 -33.61731457 21.28501457 -33 24 C-18.53506856 24.84509859 -18.53506856 24.84509859 -5 21 C-4.278125 20.67 -3.55625 20.34 -2.8125 20 C-0.82798477 19.12855431 -0.82798477 19.12855431 0 17 C-0.144375 16.154375 -0.28875 15.30875 -0.4375 14.4375 C-1.12190997 10.2549946 -1.08452457 6.2262287 -1 2 C-4.22434976 0.95210925 -6.25878805 1.10556836 -9.5234375 1.9296875 Z " fill="#C1B980" transform="translate(201,60)"/>
<path d="M0 0 C2.08384222 3.3862436 3 5.76696914 3 9.75 C1.61224707 12.8724441 0.10490774 13.65924439 -3 15 C-5.5625 15.4375 -5.5625 15.4375 -8 15 C-10.55648714 13.08263465 -11.7616689 11.56603636 -13 8.625 C-13 4.81645695 -11.32305096 2.92040692 -9 0 C-5.70635342 -1.64682329 -3.46712768 -0.97322882 0 0 Z " fill="#24231B" transform="translate(100,66)"/>
<path d="M0 0 C5.94 0 11.88 0 18 0 C18 1.65 18 3.3 18 5 C16.02 5 14.04 5 12 5 C12 10.94 12 16.88 12 23 C10.35 23 8.7 23 7 23 C6.67 17.06 6.34 11.12 6 5 C4.02 5 2.04 5 0 5 C0 3.35 0 1.7 0 0 Z " fill="#0B0C0A" transform="translate(293,119)"/>
<path d="M0 0 C1.75570313 0.01353516 1.75570313 0.01353516 3.546875 0.02734375 C4.43890625 0.03894531 5.3309375 0.05054687 6.25 0.0625 C6.875 2.4375 6.875 2.4375 7.25 5.0625 C6.59 5.7225 5.93 6.3825 5.25 7.0625 C5.25 5.0825 5.25 3.1025 5.25 1.0625 C4.26 1.5575 4.26 1.5575 3.25 2.0625 C-1.08603979 2.2018329 -5.41080671 2.10504111 -9.75 2.0625 C-9.75 9.6525 -9.75 17.2425 -9.75 25.0625 C-4.8 25.0625 0.15 25.0625 5.25 25.0625 C5.25 23.4125 5.25 21.7625 5.25 20.0625 C5.58 20.0625 5.91 20.0625 6.25 20.0625 C6.25 22.0425 6.25 24.0225 6.25 26.0625 C-1.75 26.0625 -9.75 26.0625 -17.75 26.0625 C-17.75 25.0725 -17.75 24.0825 -17.75 23.0625 C-16.43 23.7225 -15.11 24.3825 -13.75 25.0625 C-13.75 17.4725 -13.75 9.8825 -13.75 2.0625 C-15.4 2.0625 -17.05 2.0625 -18.75 2.0625 C-18.75 5.6925 -18.75 9.3225 -18.75 13.0625 C-20.4 11.7425 -22.05 10.4225 -23.75 9.0625 C-23.42 8.4025 -23.09 7.7425 -22.75 7.0625 C-22.09 7.7225 -21.43 8.3825 -20.75 9.0625 C-20.42 6.4225 -20.09 3.7825 -19.75 1.0625 C-19.14671875 1.07410156 -18.5434375 1.08570312 -17.921875 1.09765625 C-17.12265625 1.10667969 -16.3234375 1.11570312 -15.5 1.125 C-14.71109375 1.13660156 -13.9221875 1.14820312 -13.109375 1.16015625 C-10.80713347 1.15053207 -10.80713347 1.15053207 -8.875 0.5625 C-5.89594381 -0.1384544 -3.05474401 -0.03054744 0 0 Z M-12.75 6.0625 C-11.75 9.0625 -11.75 9.0625 -11.75 9.0625 Z M-11.75 18.0625 C-11.75 19.7125 -11.75 21.3625 -11.75 23.0625 C-11.42 23.0625 -11.09 23.0625 -10.75 23.0625 C-10.75 21.4125 -10.75 19.7625 -10.75 18.0625 C-11.08 18.0625 -11.41 18.0625 -11.75 18.0625 Z " fill="#959460" transform="translate(264.75,117.9375)"/>
<path d="M0 0 C0.33 0.66 0.66 1.32 1 2 C7.27 2 13.54 2 20 2 C20 3.32 20 4.64 20 6 C17.36 6 14.72 6 12 6 C12 12.27 12 18.54 12 25 C10.68 25 9.36 25 8 25 C8 19.06 8 13.12 8 7 C5.36 7 2.72 7 0 7 C0 4.69 0 2.38 0 0 Z " fill="#090905" transform="translate(103,120)"/>
<path d="M0 0 C0.33 0.66 0.66 1.32 1 2 C-0.14453125 4.609375 -0.14453125 4.609375 -1.8125 7.75 C-3.94117017 11.77475405 -5.66310069 15.64366468 -7 20 C-5.02 20 -3.04 20 -1 20 C-2.32 20.33 -3.64 20.66 -5 21 C-5 21.66 -5 22.32 -5 23 C-2.69 23.66 -0.38 24.32 2 25 C1.67 25.99 1.34 26.98 1 28 C-2.12190974 27.62039672 -5.05583195 27.12755372 -8 26 C-10.0625 22.875 -10.0625 22.875 -11 20 C-11.66 20 -12.32 20 -13 20 C-13 19.01 -13 18.02 -13 17 C-12.34 17 -11.68 17 -11 17 C-10.67 15.68 -10.34 14.36 -10 13 C-9.01 13 -8.02 13 -7 13 C-7.75150023 9.72226496 -7.75150023 9.72226496 -11 8 C-11 6.68 -11 5.36 -11 4 C-3.57142857 0.71428571 -3.57142857 0.71428571 0 0 Z M-10 17 C-9 19 -9 19 -9 19 Z " fill="#BDBA4B" transform="translate(66,124)"/>
<path d="M0 0 C3.5 0.625 3.5 0.625 6 2.6875 C7.97651731 6.55817973 7.79610706 8.50795404 6.5 12.625 C3.93487236 14.83385991 2.20928381 15.52367374 -1.125 16 C-3.5 15.625 -3.5 15.625 -5.25 14.5625 C-7.186726 11.5605747 -7.43883409 9.17262251 -7.5 5.625 C-5.4788455 1.66690578 -4.39855284 0.78545586 0 0 Z M-2.5 6.625 C-2.17 7.945 -1.84 9.265 -1.5 10.625 C-0.18 10.625 1.14 10.625 2.5 10.625 C2.5 9.305 2.5 7.985 2.5 6.625 C0.85 6.625 -0.8 6.625 -2.5 6.625 Z " fill="#16130B" transform="translate(270.5,60.375)"/>
<path d="M0 0 C4.21749219 -0.07419134 8.43463811 -0.1286204 12.65258789 -0.16479492 C14.08722552 -0.17987589 15.52181708 -0.2003438 16.95629883 -0.22631836 C19.01915859 -0.26273437 21.08140858 -0.27973243 23.14453125 -0.29296875 C25.00621948 -0.31653442 25.00621948 -0.31653442 26.90551758 -0.34057617 C30.27114086 0.02984154 30.93470648 0.4777125 33 3 C35.32488881 2.7181953 36.90892835 2.04553582 39 1 C38.34 2.32 37.68 3.64 37 5 C34.625 5.125 34.625 5.125 32 5 C31.34 4.34 30.68 3.68 30 3 C27.79749008 2.53993654 27.79749008 2.53993654 25.375 2.375 C24.55773437 2.30023438 23.74046875 2.22546875 22.8984375 2.1484375 C22.27195313 2.09945312 21.64546875 2.05046875 21 2 C21.02320313 2.59167969 21.04640625 3.18335937 21.0703125 3.79296875 C21.17411464 8.33801959 21.13708357 11.85940059 19 16 C17.59257978 13.18515955 18.33347836 11.43063887 18.9375 8.375 C19.13214844 7.37210937 19.32679688 6.36921875 19.52734375 5.3359375 C19.76130859 4.17964844 19.76130859 4.17964844 20 3 C17.36 3 14.72 3 12 3 C12 2.34 12 1.68 12 1 C10.906875 1.185625 9.81375 1.37125 8.6875 1.5625 C5 2 5 2 2 1 C2.185625 1.969375 2.37125 2.93875 2.5625 3.9375 C3.23861651 8.7487059 3.5762367 14.42448871 0.96484375 18.69140625 C-2.13568503 20.75637075 -5.56673078 20.84281542 -9.1875 21.1875 C-10.31188477 21.3102832 -10.31188477 21.3102832 -11.45898438 21.43554688 C-13.30475918 21.63540784 -15.15225433 21.81926538 -17 22 C-17 21.34 -17 20.68 -17 20 C-16.02417969 19.89042969 -15.04835937 19.78085938 -14.04296875 19.66796875 C-12.77066406 19.50941406 -11.49835938 19.35085937 -10.1875 19.1875 C-8.92292969 19.03667969 -7.65835938 18.88585937 -6.35546875 18.73046875 C-2.39835794 17.92509117 -2.39835794 17.92509117 0 15 C0.2172101 12.35003674 0.28351554 9.94923442 0.1875 7.3125 C0.17396484 6.61060547 0.16042969 5.90871094 0.14648438 5.18554688 C0.11120182 3.45670171 0.05739583 1.72825235 0 0 Z " fill="#BCBBA9" transform="translate(208,71)"/>
<path d="M0 0 C0.66 0.66 1.32 1.32 2 2 C1.4946875 2.81984375 0.989375 3.6396875 0.46875 4.484375 C-0.1809375 5.56203125 -0.830625 6.6396875 -1.5 7.75 C-2.1496875 8.81734375 -2.799375 9.8846875 -3.46875 10.984375 C-5.30183258 14.03073909 -5.30183258 14.03073909 -5 18 C-5.66 18.33 -6.32 18.66 -7 19 C-4.36 19.33 -1.72 19.66 1 20 C1.04898438 19.28972656 1.09796875 18.57945313 1.1484375 17.84765625 C1.22320312 16.92855469 1.29796875 16.00945313 1.375 15.0625 C1.44460937 14.14597656 1.51421875 13.22945312 1.5859375 12.28515625 C1.72257812 11.53105469 1.85921875 10.77695312 2 10 C2.66 9.67 3.32 9.34 4 9 C4 13.29 4 17.58 4 22 C0.0489446 22.02294161 -3.90194133 22.04285915 -7.85302734 22.05493164 C-9.85906551 22.06244036 -11.86508202 22.0751447 -13.87109375 22.08789062 C-15.75634766 22.09272461 -15.75634766 22.09272461 -17.6796875 22.09765625 C-19.42354736 22.10551147 -19.42354736 22.10551147 -21.20263672 22.11352539 C-24 22 -24 22 -26 21 C-25.67 20.34 -25.34 19.68 -25 19 C-22.69 19.33 -20.38 19.66 -18 20 C-17.67 18.35 -17.34 16.7 -17 15 C-16.67 15.99 -16.34 16.98 -16 18 C-13.36 18 -10.72 18 -8 18 C-7.938125 17.21625 -7.87625 16.4325 -7.8125 15.625 C-6.5523262 10.00268613 -4.11967041 4.11967041 0 0 Z " fill="#B5B395" transform="translate(153,47)"/>
<path d="M0 0 C1.67542976 0.28604898 3.34385343 0.61781233 5 1 C5 1.33 5 1.66 5 2 C3.35 2 1.7 2 0 2 C0.33 9.59 0.66 17.18 1 25 C1.99 25 2.98 25 4 25 C4 20.38 4 15.76 4 11 C7.23475448 12.61737724 8.70572021 13.47629223 11 16 C10.67 16.66 10.34 17.32 10 18 C9.01 17.01 8.02 16.02 7 15 C6.67 18.63 6.34 22.26 6 26 C3.69 26 1.38 26 -1 26 C-1.33 22.37 -1.66 18.74 -2 15 C-2.33 18.96 -2.66 22.92 -3 27 C-7.19174654 25.95206337 -8.21592961 25.08236365 -11 22 C-10.34 21.67 -9.68 21.34 -9 21 C-6.525 22.98 -6.525 22.98 -4 25 C-4 17.08 -4 9.16 -4 1 C-3.67 1 -3.34 1 -3 1 C-3 2.65 -3 4.3 -3 6 C-2.34 6 -1.68 6 -1 6 C-1.020625 5.195625 -1.04125 4.39125 -1.0625 3.5625 C-1 1 -1 1 0 0 Z " fill="#979C5E" transform="translate(231,118)"/>
<path d="M0 0 C2.03144641 0.93446535 4.03533587 1.93224776 6 3 C5.67 3.66 5.34 4.32 5 5 C2.525 4.01 2.525 4.01 0 3 C0 11.25 0 19.5 0 28 C1.32 28 2.64 28 4 28 C4 22.72 4 17.44 4 12 C8.29425875 13.07356469 8.74740471 13.5084773 11 17 C10.67 17.66 10.34 18.32 10 19 C9.01 18.01 8.02 17.02 7 16 C5.74552282 17.02551727 5.74552282 17.02551727 5.9375 19.21484375 C5.97910692 21.02734512 6.02077341 22.83984513 6.0625 24.65234375 C6 27 6 27 5 29 C2 29.6875 2 29.6875 -1 30 C-2 29 -2 29 -2.125 25.625 C-2 22 -2 22 -1 19 C-1.66 19 -2.32 19 -3 19 C-3.18175781 17.98679688 -3.18175781 17.98679688 -3.3671875 16.953125 C-3.53476563 16.06109375 -3.70234375 15.1690625 -3.875 14.25 C-4.03742188 13.36828125 -4.19984375 12.4865625 -4.3671875 11.578125 C-4.96796264 9.13052256 -5.77997117 7.19400143 -7 5 C-5.68 5.99 -4.36 6.98 -3 8 C-2.814375 6.2984375 -2.814375 6.2984375 -2.625 4.5625 C-2.41875 3.386875 -2.2125 2.21125 -2 1 C-1.34 0.67 -0.68 0.34 0 0 Z " fill="#8D8653" transform="translate(207,117)"/>
<path d="M0 0 C2.95887459 -0.08069658 5.9155659 -0.14034665 8.875 -0.1875 C9.71675781 -0.21263672 10.55851562 -0.23777344 11.42578125 -0.26367188 C12.23144531 -0.27333984 13.03710938 -0.28300781 13.8671875 -0.29296875 C14.98262939 -0.31653442 14.98262939 -0.31653442 16.12060547 -0.34057617 C17.05090576 -0.17199097 17.05090576 -0.17199097 18 0 C20 3 20 3 19.625 5.6875 C19.315625 6.8321875 19.315625 6.8321875 19 8 C17.02 8 15.04 8 13 8 C13.165 8.7425 13.33 9.485 13.5 10.25 C14.20054587 15.50409401 14.07707499 20.70751749 14 26 C10.71303767 26.79953138 9.28976808 27.09658936 6 26 C5.83210874 23.56257869 5.66563867 21.12507454 5.5 18.6875 C5.45230469 17.99720703 5.40460938 17.30691406 5.35546875 16.59570312 C5.16120511 13.72337641 5 10.87986212 5 8 C3.02 8 1.04 8 -1 8 C-1.92091738 5.42143135 -2.18506902 4.4056713 -1.0234375 1.859375 C-0.68570312 1.24578125 -0.34796875 0.6321875 0 0 Z M0 2 C0 3.65 0 5.3 0 7 C1.98 7 3.96 7 6 7 C6.33 12.94 6.66 18.88 7 25 C8.65 25 10.3 25 12 25 C12 19.06 12 13.12 12 7 C13.98 7 15.96 7 18 7 C18 5.35 18 3.7 18 2 C12.06 2 6.12 2 0 2 Z " fill="#9AA056" transform="translate(293,117)"/>
<path d="M0 0 C0.33 0.66 0.66 1.32 1 2 C2.65 2 4.3 2 6 2 C4.92891306 5.03474633 3.83186063 7.2225374 1.875 9.8125 C-0.55867982 13.9497557 -0.32567833 16.27766428 0 21 C-1.8125 20.9375 -1.8125 20.9375 -4 20 C-6.95329378 14.90811417 -7.31820805 11.87201769 -6 6 C-5.34 6 -4.68 6 -4 6 C-3.67 5.34 -3.34 4.68 -3 4 C-3 4.66 -3 5.32 -3 6 C-2.34 6 -1.68 6 -1 6 C-1.20625 5.38125 -1.4125 4.7625 -1.625 4.125 C-1.74875 3.42375 -1.8725 2.7225 -2 2 C-1.34 1.34 -0.68 0.68 0 0 Z " fill="#BCBB36" transform="translate(137,24)"/>
<path d="M0 0 C4.55555556 0.55555556 4.55555556 0.55555556 6 2 C6.36085818 12.37075034 6.36085818 12.37075034 3.59375 15.68359375 C1.9375 16.75 1.9375 16.75 -1 18 C-1.16955795 16.27111445 -1.33551514 14.54187557 -1.5 12.8125 C-1.5928125 11.84957031 -1.685625 10.88664062 -1.78125 9.89453125 C-2.18045888 4.6121423 -2.18045888 4.6121423 -2 2 C-1.34 1.34 -0.68 0.68 0 0 Z " fill="#0A0705" transform="translate(255,56)"/>
<path d="M0 0 C3 0.125 3 0.125 4 1.125 C4.04080783 3.12458364 4.04254356 5.12545254 4 7.125 C6.31 7.125 8.62 7.125 11 7.125 C11 9.435 11 11.745 11 14.125 C10.67 14.125 10.34 14.125 10 14.125 C10 12.145 10 10.165 10 8.125 C8.35 8.125 6.7 8.125 5 8.125 C4.34 13.405 3.68 18.685 3 24.125 C1.68 23.795 0.36 23.465 -1 23.125 C-0.51917969 22.47144531 -0.03835937 21.81789062 0.45703125 21.14453125 C2.42988325 17.2837348 2.55384618 14.08560365 2.6875 9.8125 C2.72166016 9.07193359 2.75582031 8.33136719 2.79101562 7.56835938 C2.87293554 5.75441836 2.93815822 3.93973647 3 2.125 C1.35 2.125 -0.3 2.125 -2 2.125 C-1.96519531 3.25679688 -1.93039063 4.38859375 -1.89453125 5.5546875 C-1.86639664 7.03644353 -1.83909613 8.51821556 -1.8125 10 C-1.77479492 11.11955078 -1.77479492 11.11955078 -1.73632812 12.26171875 C-1.70703125 14.4296875 -1.70703125 14.4296875 -2 18.125 C-2.99 18.785 -3.98 19.445 -5 20.125 C-5.99 19.795 -6.98 19.465 -8 19.125 C-7.01 18.465 -6.02 17.805 -5 17.125 C-3.90920324 13.53032886 -3.91928115 10.1082469 -4 6.375 C-4.03742459 4.62540022 -4.04696295 2.87436974 -4 1.125 C-3 0.125 -3 0.125 0 0 Z " fill="#AAB05E" transform="translate(99,119.875)"/>
<path d="M0 0 C2.44839588 3.67259383 4 6.54648201 4 11 C18.45950431 11.83088274 18.45950431 11.83088274 32 8 C33.66140763 7.32033324 35.32700041 6.65061095 37 6 C36.6875 7.875 36.6875 7.875 36 10 C32.72896146 12.18069236 31.31940151 12.34797132 27.484375 12.6328125 C26.39769531 12.71660156 25.31101563 12.80039063 24.19140625 12.88671875 C23.05574219 12.96535156 21.92007813 13.04398438 20.75 13.125 C19.62980469 13.21136719 18.50960937 13.29773438 17.35546875 13.38671875 C11.89071388 13.79318812 6.47969952 14.11086097 1 14 C-0.20568053 9.32798795 -0.09382426 4.78503708 0 0 Z " fill="#B8B891" transform="translate(164,72)"/>
<path d="M0 0 C0.69867188 -0.00386719 1.39734375 -0.00773437 2.1171875 -0.01171875 C5.87074298 -0.00463657 9.35151145 0.22712977 13 1.125 C9.24405522 4.88094478 4.04999885 4.19987594 -1 4.25 C-5.10201442 4.21938795 -8.97890861 4.01857586 -13 3.125 C-13 2.465 -13 1.805 -13 1.125 C-8.66349094 0.05781222 -4.43884995 -0.02456928 0 0 Z " fill="#060506" transform="translate(143,68.875)"/>
<path d="M0 0 C0.33 0 0.66 0 1 0 C1.33 2.64 1.66 5.28 2 8 C2.33 8 2.66 8 3 8 C3 9.65 3 11.3 3 13 C2.67 12.34 2.34 11.68 2 11 C1.09636719 11.2165625 0.19273437 11.433125 -0.73828125 11.65625 C-1.91777344 11.9346875 -3.09726563 12.213125 -4.3125 12.5 C-5.48425781 12.7784375 -6.65601563 13.056875 -7.86328125 13.34375 C-11 14 -11 14 -14 14 C-14.33 14.99 -14.66 15.98 -15 17 C-16.77734375 18.60546875 -16.77734375 18.60546875 -18.9375 20.1875 C-19.64777344 20.71730469 -20.35804688 21.24710938 -21.08984375 21.79296875 C-23 23 -23 23 -25 23 C-21.99355802 15.9849687 -16.77188563 13.6846317 -9.99609375 10.97265625 C-6.36849981 9.79498886 -3.75950811 9.57278317 0 10 C0 6.7 0 3.4 0 0 Z " fill="#BDBC93" transform="translate(179,25)"/>
<path d="M0 0 C4.29 0 8.58 0 13 0 C13 0.33 13 0.66 13 1 C11.741875 1.185625 10.48375 1.37125 9.1875 1.5625 C8.12595703 1.71912109 8.12595703 1.71912109 7.04296875 1.87890625 C5 2 5 2 2 1 C2.185625 1.969375 2.37125 2.93875 2.5625 3.9375 C3.23861651 8.7487059 3.5762367 14.42448871 0.96484375 18.69140625 C-2.13568503 20.75637075 -5.56673078 20.84281542 -9.1875 21.1875 C-10.31188477 21.3102832 -10.31188477 21.3102832 -11.45898438 21.43554688 C-13.30475918 21.63540784 -15.15225433 21.81926538 -17 22 C-17 21.34 -17 20.68 -17 20 C-16.02417969 19.89042969 -15.04835937 19.78085938 -14.04296875 19.66796875 C-12.77066406 19.50941406 -11.49835938 19.35085937 -10.1875 19.1875 C-8.92292969 19.03667969 -7.65835938 18.88585937 -6.35546875 18.73046875 C-3.13607923 18.20248296 -3.13607923 18.20248296 -1.0625 16.90625 C0.63883084 13.85386231 0.31100443 10.70412173 0.1875 7.3125 C0.17396484 6.61060547 0.16042969 5.90871094 0.14648438 5.18554688 C0.11120182 3.45670171 0.05739583 1.72825235 0 0 Z " fill="#A0A171" transform="translate(208,71)"/>
<path d="M0 0 C0.33 0 0.66 0 1 0 C1 4.29 1 8.58 1 13 C-2.9510554 13.02294161 -6.90194133 13.04285915 -10.85302734 13.05493164 C-12.85906551 13.06244036 -14.86508202 13.0751447 -16.87109375 13.08789062 C-18.75634766 13.09272461 -18.75634766 13.09272461 -20.6796875 13.09765625 C-22.42354736 13.10551147 -22.42354736 13.10551147 -24.20263672 13.11352539 C-27 13 -27 13 -29 12 C-28.67 11.34 -28.34 10.68 -28 10 C-27.34 10.33 -26.68 10.66 -26 11 C-24.18658158 11.08471364 -22.37005839 11.10721083 -20.5546875 11.09765625 C-19.47832031 11.09443359 -18.40195313 11.09121094 -17.29296875 11.08789062 C-15.60107422 11.07532227 -15.60107422 11.07532227 -13.875 11.0625 C-12.73933594 11.05798828 -11.60367188 11.05347656 -10.43359375 11.04882812 C-7.62234362 11.03701615 -4.8111977 11.02054507 -2 11 C-1.90912109 9.93458984 -1.90912109 9.93458984 -1.81640625 8.84765625 C-1.73261719 7.92855469 -1.64882812 7.00945313 -1.5625 6.0625 C-1.48128906 5.14597656 -1.40007812 4.22945312 -1.31640625 3.28515625 C-1 1 -1 1 0 0 Z " fill="#909057" transform="translate(156,56)"/>
<path d="M0 0 C1.11375 0.350625 2.2275 0.70125 3.375 1.0625 C6.80264476 2.37239331 6.80264476 2.37239331 9 1 C12.47521342 1.64455969 15.88730031 2.48535765 19.32421875 3.30859375 C22.97626684 3.99553585 26.29403496 4.11893341 30 4 C29.01 5.485 29.01 5.485 28 7 C21.40323674 6.59469039 14.93558944 5.73910577 8.4375 4.5625 C7.73496094 4.44028076 7.03242187 4.31806152 6.30859375 4.19213867 C1.23990293 3.23990293 1.23990293 3.23990293 -1 1 C-0.67 0.67 -0.34 0.34 0 0 Z " fill="#DBDB03" transform="translate(60,149)"/>
<path d="M0 0 C2.62875378 0.22754589 5.25046959 0.48081739 7.875 0.75 C8.62136719 0.811875 9.36773437 0.87375 10.13671875 0.9375 C15.60890318 1.52908751 15.60890318 1.52908751 17.53125 3.84375 C18.22563621 7.03792656 17.61086776 9.82348767 17 13 C10.93107371 13.25287193 5.83799592 12.69832609 0 11 C3.53094302 9.79779797 6.12898982 10.20467651 9.75 10.9375 C10.73484375 11.13214844 11.7196875 11.32679687 12.734375 11.52734375 C13.48203125 11.68332031 14.2296875 11.83929688 15 12 C15 9.03 15 6.06 15 3 C14.25234375 3.02320312 13.5046875 3.04640625 12.734375 3.0703125 C11.74953125 3.08835937 10.7646875 3.10640625 9.75 3.125 C8.77546875 3.14820312 7.8009375 3.17140625 6.796875 3.1953125 C3.9803502 2.99862781 2.39050964 2.44568916 0 1 C0 0.67 0 0.34 0 0 Z " fill="#96946F" transform="translate(166,102)"/>
<path d="M0 0 C0.66 0.33 1.32 0.66 2 1 C0 4 0 4 -2.4375 5.375 C-5.38777422 7.2459056 -6.25158487 9.03529609 -8 12 C-10.1875 13.3125 -10.1875 13.3125 -12 14 C-12 14.99 -12 15.98 -12 17 C-12.99 17 -13.98 17 -15 17 C-15 18.32 -15 19.64 -15 21 C-15.66 21 -16.32 21 -17 21 C-17 19.02 -17 17.04 -17 15 C-16.38125 14.938125 -15.7625 14.87625 -15.125 14.8125 C-14.073125 14.4103125 -14.073125 14.4103125 -13 14 C-12.7421875 13.2575 -12.484375 12.515 -12.21875 11.75 C-10.62396391 8.1515083 -8.46259094 6.59294876 -5.375 4.1875 C-4.37210938 3.39730469 -3.36921875 2.60710938 -2.3359375 1.79296875 C-1.56507813 1.20128906 -0.79421875 0.60960938 0 0 Z " fill="#696522" transform="translate(156,31)"/>
<path d="M0 0 C2.31 0 4.62 0 7 0 C7 1.65 7 3.3 7 5 C9.33075929 4.04134491 9.33075929 4.04134491 11 1 C10.8125 3.8125 10.8125 3.8125 10 7 C6.70636647 9.74469461 4.23535988 10.36303085 0 10 C-0.33 9.34 -0.66 8.68 -1 8 C-0.67 7.01 -0.34 6.02 0 5 C0.03874921 3.33378384 0.0450286 1.66605828 0 0 Z M1 1 C1.33 2.32 1.66 3.64 2 5 C3.32 5 4.64 5 6 5 C6 3.68 6 2.36 6 1 C4.35 1 2.7 1 1 1 Z " fill="#817544" transform="translate(267,66)"/>
<path d="M0 0 C3.3 0 6.6 0 10 0 C9.67 2.64 9.34 5.28 9 8 C6.36 8 3.72 8 1 8 C1.66 7.67 2.32 7.34 3 7 C3 5.68 3 4.36 3 3 C3.99 2.67 4.98 2.34 6 2 C3.69 2 1.38 2 -1 2 C-0.67 1.34 -0.34 0.68 0 0 Z " fill="#E6D857" transform="translate(147,74)"/>
<path d="M0 0 C0.66 0 1.32 0 2 0 C2 0.66 2 1.32 2 2 C3.98 2 5.96 2 8 2 C6.68 2.33 5.36 2.66 4 3 C4 3.66 4 4.32 4 5 C6.31 5.66 8.62 6.32 11 7 C10.67 7.99 10.34 8.98 10 10 C5.545 9.01 5.545 9.01 1 8 C0.34 5.69 -0.32 3.38 -1 1 C-0.67 0.67 -0.34 0.34 0 0 Z " fill="#C0BB3E" transform="translate(57,142)"/>
<path d="M0 0 C1.9375 0.5625 1.9375 0.5625 4 2 C4.92678615 5.57474656 5.40411569 7.9492992 4.0625 11.4375 C3.711875 11.953125 3.36125 12.46875 3 13 C-4.15151515 13.60606061 -4.15151515 13.60606061 -8.0625 10.8125 C-10 8 -10 8 -9.8125 5.1875 C-9.544375 4.465625 -9.27625 3.74375 -9 3 C-8.67 3 -8.34 3 -8 3 C-7.34 5.31 -6.68 7.62 -6 10 C-3.70705512 10.85974801 -3.70705512 10.85974801 -1 11 C1.33454661 9.16641665 1.33454661 9.16641665 3 7 C1.60240095 3.45481116 1.60240095 3.45481116 0 0 Z " fill="#797D52" transform="translate(138,127)"/>
<path d="M0 0 C3.23475448 1.61737724 4.70572021 2.47629223 7 5 C6.67 5.66 6.34 6.32 6 7 C5.01 6.01 4.02 5.02 3 4 C2.67 7.63 2.34 11.26 2 15 C0.02 15 -1.96 15 -4 15 C-4 12.36 -4 9.72 -4 7 C-3.67 7 -3.34 7 -3 7 C-3 9.31 -3 11.62 -3 14 C-2.01 14 -1.02 14 0 14 C0 9.38 0 4.76 0 0 Z " fill="#676A53" transform="translate(235,129)"/>
<path d="M0 0 C2.64 0 5.28 0 8 0 C9.12513633 8.01659634 9.09579384 15.92138585 9 24 C7.35 24 5.7 24 4 24 C4.99 23.67 5.98 23.34 7 23 C6.9278125 22.23816406 6.855625 21.47632812 6.78125 20.69140625 C6.21838775 14.42956368 5.89523059 8.28616467 6 2 C3.03 1.505 3.03 1.505 0 1 C0 0.67 0 0.34 0 0 Z " fill="#A4A28C" transform="translate(193,60)"/>
<path d="M0 0 C0.33 0 0.66 0 1 0 C1.33 6.93 1.66 13.86 2 21 C1.34 20.67 0.68 20.34 0 20 C0 19.01 0 18.02 0 17 C-0.99 17.33 -1.98 17.66 -3 18 C-2.67 16.68 -2.34 15.36 -2 14 C-1.34 14.33 -0.68 14.66 0 15 C-0.33 12.69 -0.66 10.38 -1 8 C-1.99 8 -2.98 8 -4 8 C-4 7.01 -4 6.02 -4 5 C-3.01 4.67 -2.02 4.34 -1 4 C-0.26676204 1.98491642 -0.26676204 1.98491642 0 0 Z " fill="#D1CD6B" transform="translate(82,120)"/>
<path d="M0 0 C-0.61875 0.0825 -1.2375 0.165 -1.875 0.25 C-4.17381462 0.80607909 -4.17381462 0.80607909 -5.1875 3 C-5.455625 3.66 -5.72375 4.32 -6 5 C-6.33 5.33 -6.66 5.66 -7 6 C-7.25005386 8.95817107 -7.25005386 8.95817107 -7 12 C-5.04783565 13.95216435 -3.46800047 14.84826645 -1 16 C-4.25047681 16.36116409 -5.58761061 16.30929204 -8.25 14.3125 C-10.26376316 11.65145583 -11 10.34543986 -11 7 C-7.87124815 1.38982426 -6.32772108 -0.16651898 0 0 Z " fill="#7E7A53" transform="translate(98,65)"/>
<path d="M0 0 C3.3 0 6.6 0 10 0 C10.33 0.66 10.66 1.32 11 2 C13.52733235 2.65555119 13.52733235 2.65555119 16 3 C16.33 2.34 16.66 1.68 17 1 C17.99 1.66 18.98 2.32 20 3 C20 3.66 20 4.32 20 5 C14.43899741 5.28276284 11.69948501 5.17532771 7 2 C4.30745009 1.29329272 4.30745009 1.29329272 2 1 C2 1.66 2 2.32 2 3 C1.34 3 0.68 3 0 3 C0 2.01 0 1.02 0 0 Z " fill="#A79A4B" transform="translate(66,141)"/>
<path d="M0 0 C0.33 0.66 0.66 1.32 1 2 C4.96 2 8.92 2 13 2 C13 2.33 13 2.66 13 3 C5.63512596 3.99862699 -1.57313685 4.10331031 -9 4 C-8 2 -8 2 -5.625 0.875 C-3 0 -3 0 0 0 Z " fill="#BEB861" transform="translate(179,43)"/>
<path d="M0 0 C-1 2 -1 2 -3 5 C-5.125 5.6875 -5.125 5.6875 -7 6 C-7.33 4.35 -7.66 2.7 -8 1 C-10.64 1 -13.28 1 -16 1 C-16 0.67 -16 0.34 -16 0 C-10.31302429 -0.91397824 -5.68697571 -0.91397824 0 0 Z " fill="#B5B35E" transform="translate(153,76)"/>
<path d="M0 0 C0.33 0.66 0.66 1.32 1 2 C-0.69389362 4.31316656 -2.02005597 5.83186747 -4.92382812 6.33007812 C-7.21029088 6.3934207 -9.46483482 6.34853117 -11.75 6.25 C-12.93916016 6.22292969 -12.93916016 6.22292969 -14.15234375 6.1953125 C-16.10208348 6.14833082 -18.05119878 6.07659044 -20 6 C-20 5.67 -20 5.34 -20 5 C-19.18015625 4.95101562 -18.3603125 4.90203125 -17.515625 4.8515625 C-16.43796875 4.77679688 -15.3603125 4.70203125 -14.25 4.625 C-13.18265625 4.55539063 -12.1153125 4.48578125 -11.015625 4.4140625 C-8.16284084 4.02235898 -6.44874376 3.44300971 -4 2 C-2.66666667 1.33333333 -1.33333333 0.66666667 0 0 Z " fill="#D8D974" transform="translate(200,78)"/>
<path d="M0 0 C0.66 0 1.32 0 2 0 C2.33 2.64 2.66 5.28 3 8 C3.53625 7.34 4.0725 6.68 4.625 6 C7 4 7 4 10.25 3.75 C11.61125 3.87375 11.61125 3.87375 13 4 C13.33 4.66 13.66 5.32 14 6 C12.6078125 5.9071875 12.6078125 5.9071875 11.1875 5.8125 C8.08461682 5.72956492 8.08461682 5.72956492 6.1875 7.1875 C4.72461964 9.42031739 4.35494045 11.37344067 4 14 C1.68540132 12.18182999 1.04622813 11.24384457 0.48828125 8.30078125 C0.43027344 7.31464844 0.37226562 6.32851562 0.3125 5.3125 C0.24675781 4.31863281 0.18101563 3.32476562 0.11328125 2.30078125 C0.07589844 1.54152344 0.03851563 0.78226563 0 0 Z " fill="#95914A" transform="translate(113,60)"/>
<path d="M0 0 C1.32 0.33 2.64 0.66 4 1 C3.505 1.66 3.01 2.32 2.5 3 C0.51683379 6.96633241 0.77642539 9.60303262 1 14 C0.34 13.67 -0.32 13.34 -1 13 C-1 12.34 -1 11.68 -1 11 C-1.66 10.67 -2.32 10.34 -3 10 C-2.67 7.36 -2.34 4.72 -2 2 C-1.34 2 -0.68 2 0 2 C0 1.34 0 0.68 0 0 Z " fill="#CDC93D" transform="translate(136,31)"/>
<path d="M0 0 C1 2 1 2 0.375 4.8125 C-1.18131396 8.42031873 -3.09336178 10.3993237 -6 13 C-6.99 12.67 -7.98 12.34 -9 12 C-8.60167969 11.55269531 -8.20335937 11.10539062 -7.79296875 10.64453125 C-4.82015875 7.25220061 -2.1717806 3.98159776 0 0 Z " fill="#A4A272" transform="translate(223,92)"/>
<path d="M0 0 C1.0725 0.103125 2.145 0.20625 3.25 0.3125 C3.91 1.6325 4.57 2.9525 5.25 4.3125 C4.693125 3.961875 4.13625 3.61125 3.5625 3.25 C0.69074289 2.08577415 -0.82133328 2.4418153 -3.75 3.3125 C-4.98267348 4.32086062 -4.98267348 4.32086062 -4.84765625 6.37890625 C-4.83605469 7.20261719 -4.82445312 8.02632813 -4.8125 8.875 C-4.80347656 9.70128906 -4.79445313 10.52757813 -4.78515625 11.37890625 C-4.77355469 12.01699219 -4.76195312 12.65507813 -4.75 13.3125 C-5.41 12.9825 -6.07 12.6525 -6.75 12.3125 C-7.8412372 8.25933326 -8.18454731 6.16348848 -6.25 2.375 C-3.75 0.3125 -3.75 0.3125 0 0 Z " fill="#A39C57" transform="translate(270.75,60.6875)"/>
<path d="M0 0 C0.33 0 0.66 0 1 0 C1 2.97 1 5.94 1 9 C-0.32 9.33 -1.64 9.66 -3 10 C-3.99 10.33 -4.98 10.66 -6 11 C-6 10.01 -6 9.02 -6 8 C-5.34 8 -4.68 8 -4 8 C-3.67 6.68 -3.34 5.36 -3 4 C-2.01 4 -1.02 4 0 4 C0 2.68 0 1.36 0 0 Z " fill="#D1CE26" transform="translate(59,133)"/>
<path d="M0 0 C0.66 0 1.32 0 2 0 C1.67 1.32 1.34 2.64 1 4 C-5.00054754 5.66681876 -10.7945858 6.51679152 -17 7 C-17 6.34 -17 5.68 -17 5 C-16.02417969 4.89042969 -15.04835937 4.78085938 -14.04296875 4.66796875 C-12.77066406 4.50941406 -11.49835938 4.35085937 -10.1875 4.1875 C-8.92292969 4.03667969 -7.65835938 3.88585937 -6.35546875 3.73046875 C-2.98349841 2.99640769 -2.10662304 2.55454289 0 0 Z " fill="#BDBB93" transform="translate(208,86)"/>
<path d="M0 0 C0.66 0 1.32 0 2 0 C2 3.3 2 6.6 2 10 C2.66 10.33 3.32 10.66 4 11 C3.34 11.66 2.68 12.32 2 13 C2 12.34 2 11.68 2 11 C1.01 11.33 0.02 11.66 -1 12 C-1.02698189 10.37509046 -1.04638757 8.75005367 -1.0625 7.125 C-1.07410156 6.22007812 -1.08570312 5.31515625 -1.09765625 4.3828125 C-1 2 -1 2 0 0 Z " fill="#DFE55B" transform="translate(108,136)"/>
<path d="M0 0 C0.66 0 1.32 0 2 0 C1.96519531 0.58007812 1.93039063 1.16015625 1.89453125 1.7578125 C1.71255476 7.009134 2.16622289 10.39511219 5 15 C3.125 14.4375 3.125 14.4375 1 13 C-0.90167351 8.29109417 -1.19997144 4.91988289 0 0 Z " fill="#FFFF20" transform="translate(131,30)"/>
<path d="M0 0 C3.3 0 6.6 0 10 0 C10 0.33 10 0.66 10 1 C7.36 1.33 4.72 1.66 2 2 C2 2.66 2 3.32 2 4 C6.455 3.505 6.455 3.505 11 3 C11 3.66 11 4.32 11 5 C7.37 5 3.74 5 0 5 C0 3.35 0 1.7 0 0 Z " fill="#959C59" transform="translate(259,133)"/>
<path d="M0 0 C3.63 0.33 7.26 0.66 11 1 C11 1.33 11 1.66 11 2 C9.02 2.33 7.04 2.66 5 3 C6.65 3.33 8.3 3.66 10 4 C10 4.33 10 4.66 10 5 C6.7 5 3.4 5 0 5 C0 3.35 0 1.7 0 0 Z " fill="#9CA153" transform="translate(259,124)"/>
<path d="M0 0 C2 2 2 2 2.1953125 4.1640625 C2.16050781 5.38222656 2.16050781 5.38222656 2.125 6.625 C2.10695313 7.44226563 2.08890625 8.25953125 2.0703125 9.1015625 C2.04710938 9.72804688 2.02390625 10.35453125 2 11 C4.31 11.33 6.62 11.66 9 12 C8 14 8 14 5.625 14.8125 C3 15 3 15 1.34765625 13.8984375 C-0.58532056 11.17546147 -0.29385687 9.109563 -0.1875 5.8125 C-0.16042969 4.72582031 -0.13335937 3.63914062 -0.10546875 2.51953125 C-0.07066406 1.68808594 -0.03585938 0.85664062 0 0 Z " fill="#99996A" transform="translate(105,71)"/>
<path d="M0 0 C0.66 0 1.32 0 2 0 C1.67 4.29 1.34 8.58 1 13 C1.99 13 2.98 13 4 13 C3.67 14.32 3.34 15.64 3 17 C2.01 16.67 1.02 16.34 0 16 C0 10.72 0 5.44 0 0 Z " fill="#AAB566" transform="translate(88,122)"/>
<path d="M0 0 C0.33 0.66 0.66 1.32 1 2 C-1.90600261 3.25664978 -3.79604584 4 -7 4 C-7 4.66 -7 5.32 -7 6 C-8.98 6.99 -8.98 6.99 -11 8 C-11 6.68 -11 5.36 -11 4 C-3.57142857 0.71428571 -3.57142857 0.71428571 0 0 Z " fill="#F7F72B" transform="translate(66,124)"/>
<path d="M0 0 C4.56454251 0.54339792 7.9728176 1.79463821 12 4 C8.57056481 5.18771723 6.62215325 4.80226223 3.25 3.5625 C2.45078125 3.27503906 1.6515625 2.98757812 0.828125 2.69140625 C0.22484375 2.46324219 -0.3784375 2.23507813 -1 2 C-0.67 1.34 -0.34 0.68 0 0 Z " fill="#DFDA26" transform="translate(71,147)"/>
<path d="M0 0 C0.33 0.66 0.66 1.32 1 2 C2.65 2 4.3 2 6 2 C5.34 3.32 4.68 4.64 4 6 C2.68 6 1.36 6 0 6 C-0.66 4.68 -1.32 3.36 -2 2 C-1.34 1.34 -0.68 0.68 0 0 Z " fill="#DFDD39" transform="translate(137,24)"/>
<path d="M0 0 C-0.66 1.65 -1.32 3.3 -2 5 C-2.66 5 -3.32 5 -4 5 C-4 3.35 -4 1.7 -4 0 C-5.98 0 -7.96 0 -10 0 C-10 -0.33 -10 -0.66 -10 -1 C-5.92224809 -1.9267618 -3.57818963 -2.33958553 0 0 Z " fill="#4C4322" transform="translate(278,66)"/>
<path d="M0 0 C0.95837449 3.04626176 1.01658162 5.09213636 0.25 8.1875 C0.01023438 9.22970703 0.01023438 9.22970703 -0.234375 10.29296875 C-0.61335937 11.13794922 -0.61335937 11.13794922 -1 12 C-1.99 12.33 -2.98 12.66 -4 13 C-3.52343588 11.20763933 -3.04366502 9.41613103 -2.5625 7.625 C-2.29566406 6.62726563 -2.02882812 5.62953125 -1.75390625 4.6015625 C-1 2 -1 2 0 0 Z " fill="#737349" transform="translate(220,74)"/>
<path d="M0 0 C0.33 0 0.66 0 1 0 C1.18451025 10.55808656 1.18451025 10.55808656 0 15 C-1.32 14.67 -2.64 14.34 -4 14 C-3.525625 13.360625 -3.05125 12.72125 -2.5625 12.0625 C-0.52968613 8.07818481 -0.2789471 4.41505926 0 0 Z " fill="#AEB266" transform="translate(102,129)"/>
<path d="M0 0 C0.33 0 0.66 0 1 0 C1.66 3.96 2.32 7.92 3 12 C2.01 11.01 1.02 10.02 0 9 C0 8.34 0 7.68 0 7 C-0.66 7 -1.32 7 -2 7 C-1.125 2.25 -1.125 2.25 0 0 Z " fill="#B0B052" transform="translate(271,126)"/>
<path d="M0 0 C0.33 1.65 0.66 3.3 1 5 C-0.65 5 -2.3 5 -4 5 C-4.33 3.68 -4.66 2.36 -5 1 C-3 0 -3 0 0 0 Z " fill="#D7D52A" transform="translate(95,151)"/>
<path d="M0 0 C0.33 0 0.66 0 1 0 C1.25 6.625 1.25 6.625 -1 10 C-1 9.34 -1 8.68 -1 8 C-1.99 8 -2.98 8 -4 8 C-4 7.01 -4 6.02 -4 5 C-3.01 4.67 -2.02 4.34 -1 4 C-0.26676204 1.98491642 -0.26676204 1.98491642 0 0 Z " fill="#D2D54D" transform="translate(82,120)"/>
<path d="M0 0 C1.32 0 2.64 0 4 0 C4.33 1.32 4.66 2.64 5 4 C3.68 4.33 2.36 4.66 1 5 C0.34 4.01 -0.32 3.02 -1 2 C-0.67 1.34 -0.34 0.68 0 0 Z " fill="#BDB92E" transform="translate(95,151)"/>
<path d="M0 0 C0.66 0 1.32 0 2 0 C2 0.99 2 1.98 2 3 C1.34 3 0.68 3 0 3 C-0.66 4.32 -1.32 5.64 -2 7 C-3.32 6.67 -4.64 6.34 -6 6 C-5.195625 5.38125 -4.39125 4.7625 -3.5625 4.125 C-0.96125481 2.25835959 -0.96125481 2.25835959 0 0 Z " fill="#62603A" transform="translate(211,91)"/>
<path d="M0 0 C1.11375 0.350625 2.2275 0.70125 3.375 1.0625 C6.80264476 2.37239331 6.80264476 2.37239331 9 1 C9.66 1.66 10.32 2.32 11 3 C10.67 3.33 10.34 3.66 10 4 C8.00390625 3.94921875 8.00390625 3.94921875 5.5625 3.6875 C4.35787109 3.56955078 4.35787109 3.56955078 3.12890625 3.44921875 C1 3 1 3 -1 1 C-0.67 0.67 -0.34 0.34 0 0 Z " fill="#FFFF13" transform="translate(60,149)"/>
<path d="M0 0 C2.64 0 5.28 0 8 0 C8 0.66 8 1.32 8 2 C4.7 2.33 1.4 2.66 -2 3 C-1.34 2.67 -0.68 2.34 0 2 C0 1.34 0 0.68 0 0 Z " fill="#040307" transform="translate(210,68)"/>
<path d="M0 0 C0.66 0.33 1.32 0.66 2 1 C-0.13478166 4.20217249 -1.62795029 5.27285259 -5 7 C-5.99 7 -6.98 7 -8 7 C-5.36 4.69 -2.72 2.38 0 0 Z " fill="#777638" transform="translate(156,31)"/>
<path d="M0 0 C2.31 0 4.62 0 7 0 C6.01 1.485 6.01 1.485 5 3 C1.875 3.1875 1.875 3.1875 -1 3 C-0.67 2.01 -0.34 1.02 0 0 Z " fill="#FFFF00" transform="translate(83,153)"/>
<path d="M0 0 C0.66 0 1.32 0 2 0 C1.67 1.32 1.34 2.64 1 4 C0.67 2.68 0.34 1.36 0 0 Z " fill="#B2B208" transform="translate(170,69)"/>
<path d="M0 0 C1 4 1 4 1 4 Z " fill="#FFFF00" transform="translate(51,137)"/>
<path d="M0 0 C0.33 0.66 0.66 1.32 1 2 C0.34 1.67 -0.32 1.34 -1 1 C-0.67 0.67 -0.34 0.34 0 0 Z " fill="#F0F063" transform="translate(66,145)"/>
<path d="M0 0 C2 1 2 1 2 1 Z " fill="#D4D42A" transform="translate(86,146)"/>
<path d="M0 0 C2 1 2 1 2 1 Z " fill="#FFFF00" transform="translate(152,58)"/>
</svg>
